<svg width="8" height="15" viewBox="0 0 8 15" fill="none" xmlns="http://www.w3.org/2000/svg">
<path d="M1.17008 -3.09609e-05C1.31947 -0.000539282 1.46708 0.032433 1.60206 0.0964618C1.73704 0.16049 1.85596 0.25395 1.95008 0.36997L6.78008 6.36997C6.92716 6.5489 7.00757 6.77334 7.00757 7.00497C7.00757 7.23659 6.92716 7.46104 6.78008 7.63997L1.78008 13.64C1.61034 13.8442 1.36643 13.9726 1.102 13.997C0.837578 14.0214 0.574297 13.9397 0.37008 13.77C0.165864 13.6002 0.0374398 13.3563 0.01306 13.0919C-0.0113197 12.8275 0.0703415 12.5642 0.24008 12.36L4.71008 6.99997L0.39008 1.63997C0.267797 1.49318 0.19012 1.31444 0.16624 1.12489C0.14236 0.935346 0.173277 0.742921 0.255333 0.570394C0.337389 0.397867 0.467149 0.252455 0.629259 0.151365C0.79137 0.0502744 0.979046 -0.00226254 1.17008 -3.09609e-05Z" fill="white"/>
</svg>
