<svg width="24" height="22" viewBox="0 0 24 22" fill="none" xmlns="http://www.w3.org/2000/svg">
<path d="M1 1H3.39269C5.25814 1 6.84158 2.36761 7.11299 4.2132L8.51812 13.7681C8.78953 15.6137 10.373 16.9813 12.2384 16.9813H20.7416" stroke="#FF6B98" stroke-width="1.41012" stroke-linecap="round" stroke-linejoin="round"/>
<path d="M22.9999 4.29028H7.11035L8.613 14.1611H16.995C19.1871 14.1611 21.0881 12.6459 21.577 10.509L22.9999 4.29028Z" stroke="#FF6B98" stroke-width="1.41012" stroke-linecap="round" stroke-linejoin="round"/>
<path d="M14.1611 19.4101C14.1611 20.1889 13.5297 20.8202 12.7509 20.8202C11.9722 20.8202 11.3408 20.1889 11.3408 19.4101C11.3408 18.6313 11.9722 18 12.7509 18C13.5297 18 14.1611 18.6313 14.1611 19.4101Z" stroke="#FF6B98" stroke-width="1.41012"/>
<path d="M19.8044 19.4101C19.8044 20.1889 19.173 20.8202 18.3943 20.8202C17.6155 20.8202 16.9841 20.1889 16.9841 19.4101C16.9841 18.6313 17.6155 18 18.3943 18C19.173 18 19.8044 18.6313 19.8044 19.4101Z" stroke="#FF6B98" stroke-width="1.41012"/>
</svg>
