<svg width="24" height="22" viewBox="0 0 24 22" fill="none" xmlns="http://www.w3.org/2000/svg">
<path d="M1 1H3.39269C5.25814 1 6.84158 2.36761 7.11299 4.2132L8.51812 13.7681C8.78953 15.6137 10.373 16.9813 12.2384 16.9813H20.7416" stroke="#262626" stroke-width="1.41012" stroke-linecap="round" stroke-linejoin="round"/>
<path d="M22.9989 4.29028H7.10938L8.61203 14.1611H16.9941C19.1861 14.1611 21.0872 12.6459 21.5761 10.509L22.9989 4.29028Z" stroke="#262626" stroke-width="1.41012" stroke-linecap="round" stroke-linejoin="round"/>
<path d="M14.1601 19.4101C14.1601 20.1889 13.5287 20.8202 12.75 20.8202C11.9712 20.8202 11.3398 20.1889 11.3398 19.4101C11.3398 18.6313 11.9712 18 12.75 18C13.5287 18 14.1601 18.6313 14.1601 19.4101Z" stroke="#262626" stroke-width="1.41012"/>
<path d="M19.8046 19.4101C19.8046 20.1889 19.1733 20.8202 18.3945 20.8202C17.6157 20.8202 16.9844 20.1889 16.9844 19.4101C16.9844 18.6313 17.6157 18 18.3945 18C19.1733 18 19.8046 18.6313 19.8046 19.4101Z" stroke="#262626" stroke-width="1.41012"/>
</svg>
