<svg width="20" height="20" viewBox="0 0 20 20" fill="none" xmlns="http://www.w3.org/2000/svg">
<path d="M0.833252 1.66666H2.82717C4.3817 1.66666 5.70123 2.80634 5.92741 4.34433L7.09835 12.3067C7.32453 13.8447 8.64406 14.9844 10.1986 14.9844H17.2846" stroke="white" stroke-width="1.5" stroke-linecap="round" stroke-linejoin="round"/>
<path d="M19.1665 4.40857H5.92529L7.1775 12.6342H13.5381C15.7302 12.6342 17.6312 11.119 18.1201 8.98219L19.1665 4.40857Z" stroke="white" stroke-width="1.5" stroke-linecap="round" stroke-linejoin="round"/>
<path d="M11.8009 17.0084C11.8009 17.6574 11.2748 18.1835 10.6258 18.1835C9.97679 18.1835 9.45068 17.6574 9.45068 17.0084C9.45068 16.3594 9.97679 15.8333 10.6258 15.8333C11.2748 15.8333 11.8009 16.3594 11.8009 17.0084Z" stroke="white" stroke-width="1.1751"/>
<path d="M16.5035 17.0084C16.5035 17.6574 15.9774 18.1835 15.3284 18.1835C14.6794 18.1835 14.1533 17.6574 14.1533 17.0084C14.1533 16.3594 14.6794 15.8333 15.3284 15.8333C15.9774 15.8333 16.5035 16.3594 16.5035 17.0084Z" stroke="white" stroke-width="1.1751"/>
</svg>
