<svg width="30" height="30" viewBox="0 0 30 30" fill="none" xmlns="http://www.w3.org/2000/svg">
<path d="M26.9313 18.0688C28.6261 11.4793 24.6582 4.76359 18.0687 3.06877C11.4793 1.37395 4.76356 5.34184 3.06874 11.9313C1.37392 18.5207 5.3418 25.2365 11.9313 26.9313C18.5207 28.6261 25.2364 24.6582 26.9313 18.0688Z" fill="#FFCE00"/>
<path d="M10.7294 16.8083C9.21402 16.2378 5.59488 14.3243 6.21887 12.1492C6.93794 9.64139 9.60624 10.9072 9.93309 12.3632C9.70726 11.4004 9.86772 10.4377 10.7829 9.99201C11.7219 9.53441 12.8569 9.95635 13.3918 10.5922C15.3766 12.9753 12.4409 16.1071 10.7294 16.8083Z" fill="#E85B5B"/>
<path d="M18.912 15.8335C17.5155 15.0134 14.2826 12.4997 15.275 10.4672C16.4161 8.11985 18.8229 9.83136 18.8942 11.317C18.8407 10.3305 19.1616 9.40942 20.1422 9.13011C21.1465 8.84486 22.1924 9.45102 22.6084 10.176C24.1535 12.8562 20.7186 15.4354 18.912 15.8335Z" fill="#E85B5B"/>
<path d="M14.1458 17.5156C14.9005 17.4324 15.5898 17.2601 16.3267 17.1353C16.8854 18.1277 17.2776 21.1763 15.6077 21.3962C13.9437 21.6161 14.0507 18.9418 14.1458 17.5156Z" fill="#E85B5B"/>
</svg>
