<svg width="20" height="20" viewBox="0 0 20 20" fill="none" xmlns="http://www.w3.org/2000/svg">
<path d="M1.30432 4.67391C1.30432 4.09735 1.53336 3.54441 1.94104 3.13672C2.34873 2.72904 2.90167 2.5 3.47823 2.5H16.5217C17.0982 2.5 17.6512 2.72904 18.0588 3.13672C18.4665 3.54441 18.6956 4.09735 18.6956 4.67391V13.3695C18.6956 13.9461 18.4665 14.499 18.0588 14.9067C17.6512 15.3144 17.0982 15.5434 16.5217 15.5434H13.8043C13.6355 15.5434 13.4691 15.5827 13.3182 15.6582C13.1673 15.7337 13.036 15.8432 12.9347 15.9782L10.8695 18.7315C10.7683 18.8665 10.637 18.976 10.486 19.0515C10.3351 19.127 10.1687 19.1662 9.99994 19.1662C9.8312 19.1662 9.66477 19.127 9.51384 19.0515C9.36292 18.976 9.23163 18.8665 9.13038 18.7315L7.06517 15.9782C6.96393 15.8432 6.83264 15.7337 6.68171 15.6582C6.53078 15.5827 6.36435 15.5434 6.19561 15.5434H3.47823C2.90167 15.5434 2.34873 15.3144 1.94104 14.9067C1.53336 14.499 1.30432 13.9461 1.30432 13.3695V4.67391ZM6.73909 9.02172C6.73909 8.73344 6.62457 8.45697 6.42072 8.25313C6.21688 8.04928 5.94041 7.93476 5.65213 7.93476C5.36386 7.93476 5.08738 8.04928 4.88354 8.25313C4.6797 8.45697 4.56518 8.73344 4.56518 9.02172C4.56518 9.31 4.6797 9.58647 4.88354 9.79031C5.08738 9.99415 5.36386 10.1087 5.65213 10.1087C5.94041 10.1087 6.21688 9.99415 6.42072 9.79031C6.62457 9.58647 6.73909 9.31 6.73909 9.02172ZM11.0869 9.02172C11.0869 8.73344 10.9724 8.45697 10.7685 8.25313C10.5647 8.04928 10.2882 7.93476 9.99994 7.93476C9.71167 7.93476 9.4352 8.04928 9.23135 8.25313C9.02751 8.45697 8.91299 8.73344 8.91299 9.02172C8.91299 9.31 9.02751 9.58647 9.23135 9.79031C9.4352 9.99415 9.71167 10.1087 9.99994 10.1087C10.2882 10.1087 10.5647 9.99415 10.7685 9.79031C10.9724 9.58647 11.0869 9.31 11.0869 9.02172ZM14.3478 10.1087C14.636 10.1087 14.9125 9.99415 15.1163 9.79031C15.3202 9.58647 15.4347 9.31 15.4347 9.02172C15.4347 8.73344 15.3202 8.45697 15.1163 8.25313C14.9125 8.04928 14.636 7.93476 14.3478 7.93476C14.0595 7.93476 13.783 8.04928 13.5792 8.25313C13.3753 8.45697 13.2608 8.73344 13.2608 9.02172C13.2608 9.31 13.3753 9.58647 13.5792 9.79031C13.783 9.99415 14.0595 10.1087 14.3478 10.1087V10.1087Z" fill="#FF6B98"/>
</svg>
