<svg width="38" height="47" viewBox="0 0 38 47" fill="none" xmlns="http://www.w3.org/2000/svg">
<path d="M5.50896 6.62817C5.14824 7.40973 4.39074 9.69427 4.24645 12.58C4.10216 15.4657 2.38275 17.7503 1.54107 18.5318L1 19.0729C1.54107 19.4336 3.1643 20.5518 3.1643 20.6961C3.1643 20.8765 2.78274 21.7488 2.26251 22.139C1.54108 22.6801 2.26251 23.1009 2.44287 23.4015C2.32263 23.5819 1.90179 23.7622 1.90179 24.3033C1.90179 24.664 3.1643 24.8444 2.80358 25.5658C2.44287 26.2872 1.54107 27.9105 3.70537 28.0908C5.43682 28.2351 7.91374 27.9105 8.93577 27.7301C9.41672 27.9105 11.238 28.6788 13 30.0002C15 31.5002 15.5 41.0002 11 45.0002" stroke="#FF6B98" stroke-width="1.5" stroke-linecap="round" stroke-linejoin="round"/>
<path d="M4.60677 7.89066C2.26385 6.08711 3.5245 4.6442 4.89704 4.82553C6.27169 4.87213 7.4574 6.45172 8.01518 7.54561C8.95211 9.38309 9.15583 11.4155 9.54108 13.4087C10.035 15.964 10.7919 18.5197 11.6972 20.9553C12.6698 23.5716 13.9059 26.1394 15.5203 28.4189C16.4203 29.6898 18.0828 32.3664 18.0828 32.3664C18.0828 32.3664 19.6378 34.9142 19.9373 36.748C20.1417 37.9992 20.071 38.7848 19.9373 39.9944C19.5766 41.6177 19.3308 42.035 18.4945 43.0605C17.5847 44.1762 15.0006 46.0003 11.0006 45.0003" stroke="#FF6B98" stroke-width="1.5" stroke-linecap="round"/>
<path d="M5.66101 4.83416C5.85196 4.46198 6.01586 3.94813 6.44066 3.78441C6.7987 3.64641 7.14043 3.537 7.52111 3.63707C8.17544 3.80909 8.95917 4.04844 9.47329 4.5088C10.1339 5.10031 10.7626 5.82442 11.3211 6.51009C12.6661 8.16132 13.6074 10.2849 14.145 12.3421C14.6972 14.4547 15.2823 16.5251 16.355 18.4503C17.6567 20.7865 19.8656 22.7461 21.9844 24.3253C23.0395 25.1117 24.1692 25.7909 25.0785 26.7563C26.2403 27.9899 27.1699 29.4568 27.8901 30.986C28.948 33.2324 29.7049 36.1328 29.0074 38.6044C28.235 41.3412 25.0009 44.4999 18.0009 43.9999" stroke="#FF6B98" stroke-width="1.5" stroke-linecap="round"/>
<path d="M7.50024 3.50017C8.8098 3.34519 9.35264 2.76086 12.5002 3.00008C13.5891 3.08281 15.1377 3.40139 16.1834 3.69851C17.6225 4.10743 19.0351 4.61216 20.3517 5.33147C21.6992 6.06768 22.9544 6.97573 23.8509 8.24132C24.5661 9.25103 25.0244 10.4282 25.4961 11.5625C25.9269 12.5983 26.3544 13.6352 26.859 14.6381C27.4436 15.8001 28.1581 16.8693 28.848 17.9685C29.6862 19.304 30.3297 20.7349 30.4779 22.321C30.5284 22.8618 30.4915 23.4049 30.5392 23.9447C30.6146 24.7966 31.0444 25.5588 31.457 26.2898C32.2384 27.6741 33.079 28.9742 33.532 30.5164C34.0206 32.1801 34.1534 33.9407 33.8052 35.6455C33.5145 37.0687 32.1525 39.9999 28.5002 40.4999" stroke="#FF6B98" stroke-width="1.5" stroke-linecap="round"/>
<path d="M5.13672 14.8191C5.74355 15.2658 6.89706 16.0478 7.52152 15.2449" stroke="#FF6B98" stroke-width="1.5" stroke-linecap="round"/>
<path d="M31.882 39.2632C32.5378 38.942 33.0905 38.3016 33.6327 37.8248C34.3728 37.1739 35.0558 36.4721 35.5444 35.6103C36.0581 34.7041 36.2525 33.8243 36.3322 32.7949C36.4018 31.8954 36.47 31.0079 36.415 30.1049C36.3263 28.648 35.9046 27.1581 35.374 25.8061C34.9176 24.6432 34.4556 23.573 34.6453 22.2952C34.7281 21.7375 34.9052 21.1989 34.9671 20.6367C35.0807 19.6042 34.9935 18.6348 34.6311 17.6557C33.9445 15.8006 32.5654 14.3194 31.1462 12.9879C30.7083 12.577 30.4078 12.0576 30.1218 11.5352C29.8803 11.0942 29.6375 10.6281 29.4972 10.1441C29.0067 8.45182 28.0038 6.91825 26.9799 5.50697C26.3284 4.60893 25.5839 3.83199 24.6306 3.2523C23.7365 2.70857 22.806 2.20502 21.8128 1.86826C20.9026 1.55963 19.9994 1.42405 19.0495 1.31701C17.5856 1.15207 16.0017 0.976699 14.5543 1.36196C14.1607 1.46675 13.7861 1.65677 13.3998 1.78782C13.0586 1.90358 12.706 2.00696 12.3967 2.19475C11.7872 2.56479 10.9132 2.46596 10.2248 2.57802C9.75441 2.6546 9.29343 2.87271 8.84313 3.02281C8.46216 3.1498 8.18657 3.33869 7.90625 3.61901" stroke="#FF6B98" stroke-width="1.5" stroke-linecap="round"/>
</svg>
