<svg width="33" height="40" viewBox="0 0 33 40" fill="none" xmlns="http://www.w3.org/2000/svg">
<path d="M18.551 23.7403C19.0609 23.9101 19.6524 24 20.2846 24C20.3764 24 20.4682 24 20.5599 23.99C21.2738 23.9601 21.9468 23.8202 22.5076 23.5805C22.7422 23.4807 22.9155 23.2809 22.9767 23.0412C23.0379 22.7816 22.9767 22.5119 22.8136 22.3122C22.579 22.0225 22.1711 21.9226 21.8346 22.0625C21.4675 22.2223 20.9984 22.3122 20.4886 22.3321C19.9685 22.3521 19.4892 22.2922 19.1017 22.1623C18.7652 22.0525 18.3675 22.1723 18.1533 22.472C18.0004 22.6917 17.9596 22.9613 18.0412 23.211C18.1228 23.4707 18.3063 23.6504 18.551 23.7403Z" fill="#FF6B98"/>
<path d="M9.55105 23.7403C10.0609 23.9101 10.6524 24 11.2846 24C11.3764 24 11.4682 24 11.5599 23.99C12.2738 23.9601 12.9468 23.8202 13.5076 23.5805C13.7422 23.4807 13.9155 23.2809 13.9767 23.0412C14.0379 22.7816 13.9767 22.5119 13.8136 22.3122C13.579 22.0225 13.1711 21.9226 12.8346 22.0625C12.4675 22.2223 11.9984 22.3122 11.4886 22.3321C10.9685 22.3521 10.4892 22.2922 10.1017 22.1623C9.76519 22.0525 9.36749 22.1723 9.15335 22.472C9.00039 22.6917 8.9596 22.9613 9.04118 23.211C9.12275 23.4707 9.30631 23.6504 9.55105 23.7403Z" fill="#FF6B98"/>
<path d="M29.4383 6.45727C27.1584 3.1854 22.6306 0.369505 19.1267 0.0335174C17.8308 -0.0944778 16.7028 0.145513 15.8708 0.729491C12.199 0.321506 5.29524 3.83337 2.43935 8.5132C-0.576537 13.457 -0.168553 18.4408 0.399426 21.7607C0.599418 22.9126 1.0474 24.1606 1.73537 25.4726V25.5765H1.79137C3.49531 28.7844 6.07121 31.3363 6.17521 31.4483L6.3672 31.6323C7.33516 33.6162 8.60711 35.5042 9.94306 36.9441C10.799 37.8641 13.0949 40 15.9908 40C18.8867 40 21.1826 37.8641 22.0386 36.9441C24.0545 34.7682 25.4465 32.5603 26.1664 30.3684L26.1744 30.3364C27.0224 29.3764 31.1503 24.5606 32.0782 20.4487C32.7502 17.4649 32.6302 11.0171 29.4383 6.45727ZM5.51923 28.7044C4.79926 27.8165 3.83929 26.5365 3.06332 25.1206C3.06332 21.9047 3.7513 13.953 10.1751 9.09717C11.351 8.20921 12.695 7.48123 14.1829 6.92926C14.4469 8.69719 14.9749 9.98514 15.8548 10.9611C3.8393 14.841 5.43923 28.2324 5.46323 28.3764C5.47923 28.4884 5.50323 28.6004 5.51923 28.7044ZM14.0549 5.55331C12.343 6.15328 10.767 6.99325 9.37508 8.04121C3.84729 12.2171 2.31135 18.6248 1.89537 22.3287C1.81537 22.0487 1.75937 21.7847 1.71138 21.5287C1.1754 18.4248 0.783411 13.769 3.57531 9.20117C6.13521 5.00133 11.727 2.34543 14.7269 2.04944C14.1269 3.1854 14.0309 4.56135 14.0549 5.55331ZM18.5747 3.56138C17.9508 3.0334 17.3988 2.39343 16.9348 1.64946C17.4788 1.37747 18.1668 1.28147 19.0067 1.36147C21.4306 1.59346 24.5665 3.2334 26.8544 5.47331C24.8545 5.7613 21.2866 5.8573 18.5747 3.56138ZM25.2225 19.0248C23.5025 14.073 21.0626 12.729 19.0947 11.6491C17.2548 10.6331 15.9268 9.90514 15.4789 6.54527C15.4389 6.26528 15.3909 5.7693 15.3909 5.18532C15.4149 5.24932 15.4309 5.31332 15.4549 5.37731C17.2308 10.3531 22.2626 11.9611 22.4786 12.0331C23.5105 12.353 24.5825 12.521 25.6545 12.521C27.6304 12.521 29.2783 11.9771 30.3343 11.5051C31.2623 14.737 31.2303 18.1768 30.7823 20.1688C30.1663 22.8966 27.8464 26.1685 26.4064 27.9845C26.4944 25.6325 26.3424 22.2487 25.2225 19.0248ZM7.48716 21.2087C8.48712 17.9208 10.959 13.649 17.0548 11.9931C17.5108 12.2971 17.9908 12.561 18.4547 12.817C20.3107 13.841 22.4146 14.9929 23.9665 19.4648C25.5745 24.1046 25.0065 29.2884 24.9425 29.8484L24.9025 29.9604C24.2465 31.9683 22.9506 34.0162 21.0626 36.0482C20.3267 36.8401 18.3667 38.68 15.9908 38.68C13.6149 38.68 11.655 36.8401 10.919 36.0482C9.16709 34.1602 7.79914 31.7123 7.11117 30.0644C7.01517 29.5764 6.89518 28.9364 6.77518 28.1684C6.77518 28.1365 6.3752 24.8726 7.48716 21.2087ZM22.8626 10.7611C22.6786 10.7051 18.2547 9.28917 16.7028 4.92933C16.4868 4.32935 16.3428 3.68138 16.2628 3.0094C16.7028 3.60138 17.1908 4.12136 17.7188 4.56135C19.5907 6.14529 21.9666 6.95325 24.7825 6.95325C26.0785 6.95325 27.1904 6.77726 27.9184 6.62527C28.0944 6.84126 28.2384 7.03325 28.3584 7.20925C28.9663 8.08121 29.4943 9.09717 29.9183 10.2251C28.5584 10.8491 25.9025 11.7051 22.8626 10.7611Z" fill="#FF6B98"/>
<path d="M14.2633 33.9123C14.7113 34.0483 15.2313 34.1123 15.7753 34.1123C15.8713 34.1123 15.9593 34.1123 16.0553 34.1043C16.6953 34.0803 17.2952 33.9603 17.7992 33.7763C18.0232 33.6963 18.1752 33.5204 18.2232 33.3124C18.2712 33.1124 18.2152 32.9044 18.0712 32.7524C17.8632 32.5284 17.5112 32.4484 17.2152 32.5604C16.8792 32.6884 16.4633 32.7604 15.9993 32.7844C15.5273 32.8084 15.0953 32.7604 14.7513 32.6564C14.4473 32.5684 14.1114 32.6724 13.9194 32.9044C13.7834 33.0724 13.7434 33.2804 13.8074 33.4804C13.8714 33.6883 14.0394 33.8483 14.2633 33.9123Z" fill="#FF6B98"/>
</svg>
