<svg width="29" height="40" viewBox="0 0 29 40" fill="none" xmlns="http://www.w3.org/2000/svg">
<path d="M6.7445 40L3.0245 28.056C2.4485 26.2 2.3525 24.224 2.7445 22.32L2.7525 22.28V22.256L2.7685 22.208C3.1525 20.44 3.9685 18.768 5.1205 17.368L5.9605 16.352C7.2245 14.816 7.8645 12.88 7.7445 10.888L7.4245 6.912C7.3765 6.304 7.0565 5.76 6.5845 5.376C5.6565 4.616 5.0085 3.576 4.7525 2.424C4.5765 1.624 4.5845 0.808 4.7765 0H6.4245C6.1845 0.704 6.1525 1.456 6.3445 2.2C6.7045 3.608 7.9125 4.72001 9.3445 4.96801C9.5685 5.00801 9.7925 5.024 10.0165 5.024C11.7605 5.024 13.2805 3.84 13.7045 2.152C13.8085 1.752 14.1765 1.472 14.6165 1.472C15.0485 1.472 15.4245 1.752 15.5285 2.152C15.9525 3.848 17.4725 5.024 19.2165 5.024C19.4405 5.024 19.6725 5.00801 19.8965 4.96801C21.3285 4.72001 22.5365 3.6 22.8965 2.192C23.0805 1.456 23.0565 0.704 22.8085 0H24.4565C24.6645 0.896 24.6485 1.824 24.4085 2.712C24.1285 3.744 23.5045 4.67201 22.6645 5.36801C22.1845 5.76001 21.8645 6.304 21.8085 6.928L21.4885 10.888C21.3765 12.872 22.0085 14.816 23.2725 16.352L24.1125 17.368C25.2645 18.768 26.0725 20.424 26.4645 22.192L26.5125 22.4C26.8885 24.272 26.7845 26.232 26.2165 28.056L22.5125 40H6.7445ZM25.0645 24.544C19.5765 25.056 15.3285 27.92 15.3925 31.072V38.6H21.4725L24.8805 27.64C25.1605 26.752 25.3045 25.792 25.3205 24.792V24.52L25.0645 24.544ZM3.9285 24.792C3.9445 25.792 4.0885 26.752 4.3685 27.64L7.7765 38.6H13.9845V31.016C13.9925 27.888 9.7285 25.056 4.1925 24.544L3.9205 24.52L3.9285 24.792ZM11.8085 25.528C12.9685 26.28 13.8725 27.136 14.4805 28.088L14.6885 28.408L14.8885 28.088C15.4965 27.136 16.3925 26.272 17.5365 25.528L18.2965 25.032L17.3925 25.08C16.1445 25.144 15.1205 25.152 14.6245 25.152C14.1445 25.152 13.1525 25.144 11.9445 25.08L11.0405 25.032L11.8085 25.528ZM9.1525 10.808C9.2885 13.152 8.5365 15.432 7.0485 17.24L6.2085 18.256C5.3125 19.344 4.6565 20.608 4.2805 22.016L4.2325 22.192L4.3845 22.288C5.3045 22.872 8.7925 23.752 14.6245 23.752C20.4565 23.752 23.9445 22.88 24.8725 22.288L25.0245 22.192L24.9765 22.016C24.5925 20.608 23.9445 19.344 23.0485 18.256L22.2085 17.24C20.7125 15.432 19.9685 13.144 20.1045 10.808L20.3525 6.512L20.0565 6.56C19.7765 6.6 19.5045 6.624 19.2245 6.624C17.4805 6.624 15.8405 5.76799 14.8245 4.34399L14.6245 4.064L14.4245 4.34399C13.4085 5.77599 11.7685 6.624 10.0245 6.624C9.7525 6.624 9.4725 6.6 9.2005 6.56L8.9045 6.512L9.1525 10.808Z" fill="#FF6B98"/>
<path d="M27.7891 17.7512C27.1417 16.9844 26.4638 16.206 25.9806 15.3221C25.3852 14.233 25.1073 12.9532 25.1438 11.7159C25.1854 10.3055 25.5332 8.85245 26.3509 7.68593C26.864 6.95386 27.5261 6.34082 28.1743 5.73193" stroke="#FF6B98" stroke-width="1.5" stroke-linecap="round"/>
<path d="M1.84752 18.2521C3.25153 17.0382 3.84535 15.3964 4.04763 13.5822C4.24359 11.8247 4.15524 9.93291 3.52115 8.26593C3.28227 7.63794 3.06312 7.26393 2.66721 6.72927C2.17768 6.0682 1.57563 5.57563 1 5" stroke="#FF6B98" stroke-width="1.5" stroke-linecap="round"/>
</svg>
