<svg width="24" height="24" viewBox="0 0 24 24" fill="none" xmlns="http://www.w3.org/2000/svg">
<path d="M1 13.6875C2.1692 11.8893 3.95781 9.85683 6.14894 8.39166M23 13.6875C21.442 11.3911 19.8708 9.72511 18.3191 8.56865M18.3191 8.56865L21.5 4.43485M18.3191 8.56865C16.2287 7.01054 14.1736 6.37737 12.234 6.37375M12.234 6.37375V1.5M12.234 6.37375C10.0146 6.36961 7.94636 7.18975 6.14894 8.39166M6.14894 8.39166L2.87234 4.43485" stroke="#262626" stroke-width="2" stroke-linecap="round" stroke-linejoin="round"/>
<path d="M1 13.6874C3.5 20.0001 15 26.5001 23 13.6874" stroke="#262626" stroke-width="2" stroke-linecap="round" stroke-linejoin="round"/>
<path d="M15.2812 13.3438C15.2812 15.1559 13.8122 16.625 12 16.625C10.1878 16.625 8.71875 15.1559 8.71875 13.3438C8.71875 11.5316 10.1878 10.0625 12 10.0625C13.8122 10.0625 15.2812 11.5316 15.2812 13.3438Z" fill="#262626" stroke="#262626"/>
</svg>
