<svg width="30" height="30" viewBox="0 0 30 30" fill="none" xmlns="http://www.w3.org/2000/svg">
<path d="M6.87501 6.25H23.125C23.305 6.31314 23.4682 6.41664 23.6021 6.55258C23.7359 6.68852 23.8369 6.85329 23.8972 7.03428C23.9575 7.21526 23.9756 7.40765 23.9501 7.59671C23.9246 7.78577 23.8561 7.96648 23.75 8.125L17.5 15V23.75L12.5 20V15L6.25001 8.125C6.14388 7.96648 6.07543 7.78577 6.04992 7.59671C6.02441 7.40765 6.04251 7.21526 6.10284 7.03428C6.16317 6.85329 6.26412 6.68852 6.39796 6.55258C6.53181 6.41664 6.69499 6.31314 6.87501 6.25Z" stroke="white" stroke-width="2" stroke-linecap="round" stroke-linejoin="round"/>
</svg>
