<svg width="54" height="54" viewBox="0 0 54 54" fill="none" xmlns="http://www.w3.org/2000/svg">
<rect x="0.5" y="0.5" width="53" height="53" rx="26.5" stroke="#8D8FA2" stroke-opacity="0.34"/>
<g clip-path="url(#clip0_1125_28174)">
<g clip-path="url(#clip1_1125_28174)">
<path d="M24.5 18.5002L27 20.5002L28 19.5002L31.5 17.5002C32.5 17.8335 34.5 18.6002 34.5 19.0002C34.5 19.4002 35.8333 20.5002 36.5 21.0002L37 25.5002L34 31.0002L27 35.5002L25 34.0002L20 29.5002L16.5 25.0002L18 20.0002L20.5 18.0002L24.5 18.5002Z" fill="#8D8FA1"/>
<path d="M27.0007 36.9999C26.6875 36.9999 26.3856 36.8839 26.1502 36.6733C25.2615 35.8792 24.4046 35.133 23.6487 34.4747L23.6448 34.4713C21.4284 32.5413 19.5144 30.8746 18.1827 29.2327C16.6941 27.3972 16.0007 25.6569 16.0007 23.7557C16.0007 21.9086 16.6206 20.2045 17.746 18.9571C18.8848 17.6949 20.4475 16.9998 22.1466 16.9998C23.4165 16.9998 24.5795 17.4101 25.6032 18.2191C26.1199 18.6274 26.5882 19.1272 27.0007 19.7102C27.4135 19.1272 27.8816 18.6274 28.3984 18.2191C29.4221 17.4101 30.5851 16.9998 31.855 16.9998C33.554 16.9998 35.1168 17.6949 36.2556 18.9571C37.381 20.2045 38.0007 21.9086 38.0007 23.7557C38.0007 25.6569 37.3075 27.3972 35.8189 29.2325C34.4872 30.8746 32.5734 32.5411 30.3573 34.471C29.6 35.1302 28.7418 35.8777 27.851 36.6736C27.6159 36.8839 27.3138 36.9999 27.0007 36.9999ZM22.1466 18.3167C20.8117 18.3167 19.5854 18.861 18.6933 19.8496C17.788 20.8531 17.2893 22.2403 17.2893 23.7557C17.2893 25.3547 17.8709 26.7848 19.1749 28.3925C20.4352 29.9465 22.3099 31.579 24.4805 33.4692L24.4845 33.4726C25.2434 34.1334 26.1036 34.8826 26.9989 35.6825C27.8995 34.881 28.7611 34.1307 29.5214 33.4688C31.6919 31.5786 33.5664 29.9465 34.8267 28.3925C36.1306 26.7848 36.7122 25.3547 36.7122 23.7557C36.7122 22.2403 36.2135 20.8531 35.3081 19.8496C34.4162 18.861 33.1897 18.3167 31.855 18.3167C30.8771 18.3167 29.9793 18.6343 29.1866 19.2607C28.4801 19.8191 27.988 20.525 27.6995 21.019C27.5511 21.273 27.2899 21.4246 27.0007 21.4246C26.7115 21.4246 26.4504 21.273 26.302 21.019C26.0136 20.525 25.5215 19.8191 24.8149 19.2607C24.0221 18.6343 23.1243 18.3167 22.1466 18.3167Z" fill="#8D8FA1" stroke="#8D8FA1" stroke-width="0.5"/>
</g>
</g>
<defs>
<clipPath id="clip0_1125_28174">
<rect width="24" height="24" fill="white" transform="translate(39 39) rotate(180)"/>
</clipPath>
<clipPath id="clip1_1125_28174">
<rect width="24" height="24" fill="white" transform="translate(15 15)"/>
</clipPath>
</defs>
</svg>
