<svg width="14" height="14" viewBox="0 0 14 14" fill="none" xmlns="http://www.w3.org/2000/svg">
<g clip-path="url(#clip0_1118_13749)">
<path d="M5.51768 2.04159L6.9697 3.20826L7.55051 2.62492L9.58334 1.45825C10.1641 1.6527 11.3258 2.09992 11.3258 2.33325C11.3258 2.56659 12.1002 3.20826 12.4874 3.49992L12.7778 6.12493L11.0354 9.33327L6.9697 11.9583L5.80808 11.0833L2.90404 8.45827L0.871216 5.83326L1.74243 2.91659L3.19445 1.74992L5.51768 2.04159Z" fill="#FF6B98"/>
<path d="M6.96983 12.8334C6.78792 12.8334 6.61254 12.7658 6.47586 12.6429C5.95967 12.1797 5.462 11.7444 5.02292 11.3604L5.02068 11.3584C3.73337 10.2326 2.62173 9.26036 1.84827 8.30261C0.983658 7.2319 0.58094 6.21672 0.58094 5.1077C0.58094 4.0302 0.940959 3.03613 1.59461 2.30849C2.25605 1.57224 3.16366 1.16675 4.15051 1.16675C4.8881 1.16675 5.56358 1.40606 6.15815 1.87798C6.45822 2.11619 6.73021 2.40773 6.96983 2.74779C7.20955 2.40773 7.48144 2.11619 7.7816 1.87798C8.37617 1.40606 9.05166 1.16675 9.78924 1.16675C10.776 1.16675 11.6837 1.57224 12.3451 2.30849C12.9988 3.03613 13.3587 4.0302 13.3587 5.1077C13.3587 6.21672 12.9561 7.2319 12.0915 8.30251C11.318 9.26036 10.2065 10.2325 8.91937 11.3582C8.47951 11.7428 7.98106 12.1788 7.4637 12.6431C7.32712 12.7658 7.15164 12.8334 6.96983 12.8334ZM4.15051 1.93491C3.3752 1.93491 2.66296 2.25246 2.14482 2.82913C1.61898 3.41451 1.32935 4.22369 1.32935 5.1077C1.32935 6.04044 1.66714 6.87463 2.42451 7.81247C3.15654 8.719 4.24537 9.67125 5.50607 10.7739L5.50841 10.7759C5.94914 11.1614 6.44876 11.5984 6.96876 12.065C7.49187 11.5975 7.99227 11.1597 8.43388 10.7737C9.69449 9.67105 10.7832 8.719 11.5152 7.81247C12.2725 6.87463 12.6103 6.04044 12.6103 5.1077C12.6103 4.22369 12.3207 3.41451 11.7948 2.82913C11.2768 2.25246 10.5645 1.93491 9.78924 1.93491C9.22128 1.93491 8.69983 2.1202 8.2394 2.48557C7.82908 2.81132 7.54325 3.22312 7.37567 3.51125C7.28949 3.65942 7.1378 3.74786 6.96983 3.74786C6.80186 3.74786 6.65017 3.65942 6.56399 3.51125C6.39651 3.22312 6.11068 2.81132 5.70026 2.48557C5.23983 2.1202 4.71837 1.93491 4.15051 1.93491Z" fill="#FF6B98" stroke="#FF6B98" stroke-width="0.5"/>
</g>
<defs>
<clipPath id="clip0_1118_13749">
<rect width="13.9394" height="14" fill="white"/>
</clipPath>
</defs>
</svg>
