<svg width="24" height="24" viewBox="0 0 24 24" fill="none" xmlns="http://www.w3.org/2000/svg">
<path d="M12 22C11.6868 22 11.3848 21.8841 11.1495 21.6734C10.2608 20.8794 9.40392 20.1331 8.64793 19.4749L8.64407 19.4714C6.42766 17.5415 4.5137 15.8747 3.18201 14.2329C1.69337 12.3974 1 10.6571 1 8.75591C1 6.90876 1.61986 5.20464 2.74527 3.95726C3.88411 2.69513 5.44676 2 7.14587 2C8.4158 2 9.57881 2.41025 10.6025 3.21926C11.1191 3.62762 11.5874 4.1274 12 4.71036C12.4127 4.1274 12.8809 3.62762 13.3977 3.21926C14.4214 2.41025 15.5844 2 16.8543 2C18.5532 2 20.1161 2.69513 21.2549 3.95726C22.3803 5.20464 23 6.90876 23 8.75591C23 10.6571 22.3068 12.3974 20.8182 14.2327C19.4865 15.8747 17.5727 17.5413 15.3566 19.4711C14.5993 20.1304 13.7411 20.8778 12.8503 21.6738C12.6152 21.8841 12.313 22 12 22ZM7.14587 3.31685C5.81099 3.31685 4.5847 3.86121 3.6926 4.84979C2.78723 5.85329 2.28856 7.24046 2.28856 8.75591C2.28856 10.3549 2.87015 11.7849 4.17415 13.3927C5.43451 14.9467 7.30919 16.5791 9.47978 18.4693L9.48381 18.4727C10.2426 19.1336 11.1029 19.8827 11.9982 20.6826C12.8988 19.8812 13.7604 19.1308 14.5207 18.469C16.6911 16.5788 18.5657 14.9467 19.826 13.3927C21.1299 11.7849 21.7114 10.3549 21.7114 8.75591C21.7114 7.24046 21.2128 5.85329 20.3074 4.84979C19.4155 3.86121 18.189 3.31685 16.8543 3.31685C15.8764 3.31685 14.9786 3.63448 14.1859 4.26083C13.4794 4.81926 12.9873 5.52519 12.6987 6.01914C12.5504 6.27314 12.2892 6.42476 12 6.42476C11.7108 6.42476 11.4496 6.27314 11.3013 6.01914C11.0129 5.52519 10.5208 4.81926 9.81413 4.26083C9.02139 3.63448 8.12358 3.31685 7.14587 3.31685Z" fill="#FF6B98" stroke="#FF6B98" stroke-width="0.5"/>
</svg>
