<svg width="50" height="50" viewBox="0 0 50 50" fill="none" xmlns="http://www.w3.org/2000/svg">
<path d="M22.9154 17.3323L24.4478 18.5583C24.7622 18.8097 25.2153 18.7847 25.5 18.5L27.3295 16.9755C28.0858 16.3452 29.0392 16 30.0237 16C30.9794 16 31.9066 16.3252 32.6528 16.9222L32.7264 16.9811C33.549 17.6392 34.1133 18.5663 34.3199 19.5993L34.5 20.5C34.8201 22.1007 34.4913 23.7631 33.5858 25.1213L33 26L29.5 30L26.057 33.0604C25.4635 33.588 24.5615 33.5615 24 33L22.7748 31.7748C21.927 30.927 20.9976 30.165 20 29.5L19.0744 28.8829C18.6924 28.6283 18.3365 28.3365 18.0119 28.0119C17.3442 27.3442 16.8284 26.5437 16.4366 25.6847C16.1071 24.9623 15.7384 24.2384 15.5 24C15.3775 23.8775 15.2832 23.7206 15.2112 23.5524C14.9286 22.8917 15.0594 22.1438 15.1775 21.435L15.3857 20.1857C15.4615 19.7311 15.6048 19.2904 15.8109 18.8783L15.8311 18.8377C16.2653 17.9694 16.9694 17.2653 17.8377 16.8311C18.9021 16.299 20.1342 16.2114 21.2631 16.5877L21.9953 16.8318C22.3291 16.943 22.6406 17.1125 22.9154 17.3323Z" fill="#FF6B98"/>
<path d="M25 35C24.6868 35 24.3848 34.8841 24.1495 34.6735C23.2608 33.8794 22.4039 33.1332 21.6479 32.4749L21.6441 32.4715C19.4277 30.5415 17.5137 28.8748 16.182 27.2329C14.6934 25.3974 14 23.6571 14 21.7559C14 19.9088 14.6199 18.2047 15.7453 16.9573C16.8841 15.6951 18.4468 15 20.1459 15C21.4158 15 22.5788 15.4103 23.6025 16.2193C24.1191 16.6276 24.5874 17.1274 25 17.7104C25.4127 17.1274 25.8809 16.6276 26.3977 16.2193C27.4214 15.4103 28.5844 15 29.8543 15C31.5532 15 33.1161 15.6951 34.2549 16.9573C35.3803 18.2047 36 19.9088 36 21.7559C36 23.6571 35.3068 25.3974 33.8182 27.2327C32.4865 28.8748 30.5727 30.5413 28.3566 32.4711C27.5993 33.1304 26.7411 33.8779 25.8503 34.6738C25.6152 34.8841 25.313 35 25 35ZM20.1459 16.3168C18.811 16.3168 17.5847 16.8612 16.6926 17.8498C15.7872 18.8533 15.2886 20.2405 15.2886 21.7559C15.2886 23.3549 15.8701 24.7849 17.1741 26.3927C18.4345 27.9467 20.3092 29.5791 22.4798 31.4693L22.4838 31.4728C23.2426 32.1336 24.1029 32.8828 24.9982 33.6827C25.8988 32.8812 26.7604 32.1309 27.5207 31.469C29.6911 29.5788 31.5657 27.9467 32.826 26.3927C34.1299 24.7849 34.7114 23.3549 34.7114 21.7559C34.7114 20.2405 34.2128 18.8533 33.3074 17.8498C32.4155 16.8612 31.189 16.3168 29.8543 16.3168C28.8764 16.3168 27.9786 16.6345 27.1859 17.2608C26.4794 17.8193 25.9873 18.5252 25.6987 19.0191C25.5504 19.2732 25.2892 19.4248 25 19.4248C24.7108 19.4248 24.4496 19.2732 24.3013 19.0191C24.0129 18.5252 23.5208 17.8193 22.8141 17.2608C22.0214 16.6345 21.1236 16.3168 20.1459 16.3168Z" fill="#FF6B98" stroke="#FF6B98" stroke-width="0.5"/>
<rect x="0.5" y="0.5" width="49" height="49" rx="24.5" stroke="#DFE3EA"/>
</svg>
