<svg width="14" height="14" viewBox="0 0 14 14" fill="none" xmlns="http://www.w3.org/2000/svg">
<g clip-path="url(#clip0_1118_13761)">
<path d="M7.03083 12.8334C6.84892 12.8334 6.67354 12.7658 6.53686 12.6429C6.02067 12.1797 5.523 11.7444 5.08392 11.3604L5.08168 11.3584C3.79436 10.2326 2.68272 9.26036 1.90926 8.30261C1.04465 7.2319 0.641937 6.21672 0.641937 5.1077C0.641937 4.0302 1.00196 3.03613 1.6556 2.30849C2.31705 1.57224 3.22465 1.16675 4.21151 1.16675C4.94909 1.16675 5.62458 1.40606 6.21915 1.87798C6.51922 2.11619 6.7912 2.40773 7.03083 2.74779C7.27055 2.40773 7.54244 2.11619 7.8426 1.87798C8.43717 1.40606 9.11265 1.16675 9.85024 1.16675C10.837 1.16675 11.7447 1.57224 12.4061 2.30849C13.0598 3.03613 13.4197 4.0302 13.4197 5.1077C13.4197 6.21672 13.0171 7.2319 12.1525 8.30251C11.379 9.26036 10.2675 10.2325 8.98037 11.3582C8.54051 11.7428 8.04206 12.1788 7.52469 12.6431C7.38811 12.7658 7.21264 12.8334 7.03083 12.8334ZM4.21151 1.93491C3.4362 1.93491 2.72396 2.25246 2.20582 2.82913C1.67998 3.41451 1.39034 4.22369 1.39034 5.1077C1.39034 6.04044 1.72813 6.87463 2.48551 7.81247C3.21754 8.719 4.30636 9.67125 5.56706 10.7739L5.5694 10.7759C6.01014 11.1614 6.50976 11.5984 7.02975 12.065C7.55287 11.5975 8.05327 11.1597 8.49488 10.7737C9.75548 9.67105 10.8442 8.719 11.5762 7.81247C12.3335 6.87463 12.6713 6.04044 12.6713 5.1077C12.6713 4.22369 12.3817 3.41451 11.8558 2.82913C11.3378 2.25246 10.6255 1.93491 9.85024 1.93491C9.28228 1.93491 8.76083 2.1202 8.3004 2.48557C7.89007 2.81132 7.60424 3.22312 7.43666 3.51125C7.35048 3.65942 7.1988 3.74786 7.03083 3.74786C6.86286 3.74786 6.71117 3.65942 6.62499 3.51125C6.45751 3.22312 6.17168 2.81132 5.76126 2.48557C5.30083 2.1202 4.77937 1.93491 4.21151 1.93491Z" fill="#FF6B98" stroke="#FF6B98" stroke-width="0.5"/>
</g>
<defs>
<clipPath id="clip0_1118_13761">
<rect width="13.9394" height="14" fill="white" transform="translate(0.0610046)"/>
</clipPath>
</defs>
</svg>
