<svg width="268" height="59" viewBox="0 0 268 59" fill="none" xmlns="http://www.w3.org/2000/svg">
<g clip-path="url(#clip0_1101_19670)">
<path d="M52.2666 56.158C51.8787 57.6036 50.9333 58.7674 49.1151 58.7552C47.0909 58.7552 45.6484 57.2238 45.6484 54.4919C45.6484 52.25 46.8363 50.1674 49.2242 50.1674C51.2848 50.1674 52.1212 51.6497 52.2666 52.8013H51.4424C51.1999 51.8457 50.5818 50.9514 49.2121 50.9392C47.4909 50.9392 46.5212 52.4093 46.509 54.4551C46.509 56.403 47.406 57.9834 49.1151 57.9834C50.303 57.9834 51.0181 57.3831 51.4424 56.1458L52.2666 56.158Z" fill="#575756"/>
<path d="M61.4542 54.4672C61.4542 56.7459 60.1936 58.7795 57.7815 58.7673C55.5876 58.7673 54.23 56.9419 54.23 54.4672C54.23 52.1273 55.5148 50.1794 57.8663 50.1794C60.0239 50.1794 61.4542 51.8946 61.4542 54.4672ZM55.0906 54.4672C55.0906 56.4151 56.1209 57.9955 57.8421 57.9955C59.5997 57.9955 60.5815 56.5376 60.5936 54.4795C60.5936 52.5439 59.6239 50.9512 57.83 50.9512C55.9754 50.939 55.0906 52.5071 55.0906 54.4672Z" fill="#575756"/>
<path d="M64.2787 56.3171C64.5574 57.3829 65.2968 58.02 66.5817 58.02C68.0241 58.02 68.6059 57.3462 68.6059 56.4274C68.6059 55.4963 68.2181 55.0308 66.3999 54.5897C64.3029 54.0752 63.7938 53.4382 63.7938 52.3601C63.7938 51.233 64.6423 50.1794 66.4726 50.1794C68.3029 50.1794 69.1756 51.3188 69.309 52.4826H68.4968C68.3514 51.7966 67.8181 50.939 66.4362 50.939C65.0302 50.939 64.6181 51.6373 64.6181 52.2988C64.6181 53.0584 65.0059 53.4259 66.6059 53.8302C68.8969 54.3937 69.4544 55.141 69.4544 56.3784C69.4544 57.873 68.2544 58.7918 66.5453 58.7795C64.6908 58.7795 63.6605 57.7872 63.4302 56.3171H64.2787Z" fill="#575756"/>
<path d="M72.0243 52.5071C72.0243 51.7965 72.0243 51.037 72.0122 50.3877H72.8122C72.8243 50.6694 72.8607 51.3677 72.8365 51.8455C73.1758 51.0247 73.9274 50.1917 75.2728 50.1917C76.4122 50.1917 77.2971 50.7674 77.6243 51.821C78.0365 50.9635 78.8486 50.2039 80.2668 50.2039C81.5152 50.2039 82.8122 50.9267 82.8122 53.2054L82.8001 58.5957H81.988L82.0001 53.3034C82.0001 52.2008 81.6122 51.0125 80.1092 51.0002C78.5334 51.0002 77.8183 52.2743 77.8183 53.8669L77.8062 58.5835H77.0062L77.0183 53.3034C77.0183 52.1028 76.6668 50.988 75.1758 50.988C73.6001 50.988 72.8365 52.3968 72.8365 54.0629L72.8243 58.5712H72.0122L72.0243 52.5071Z" fill="#575756"/>
<path d="M86.3027 54.6141C86.3148 56.7335 87.3693 58.0444 88.9209 58.0444C90.4481 58.0444 90.9693 57.1745 91.2602 56.513H92.0845C91.7451 57.5911 90.8845 58.8162 88.8845 58.8162C86.4239 58.8162 85.4663 56.66 85.4663 54.5774C85.4663 52.2375 86.6299 50.2161 88.9936 50.2283C91.4905 50.2283 92.2784 52.409 92.2784 53.9526C92.2784 54.1853 92.2784 54.4059 92.2663 54.6264L86.3027 54.6141ZM91.4421 53.9036C91.4299 52.2865 90.5572 51.0001 88.9693 51.0001C87.2966 51.0001 86.533 52.1762 86.3512 53.9036H91.4421Z" fill="#575756"/>
<path d="M93.8301 50.4366H95.3331V47.8762H96.1452V50.4366H98.0725V51.2084H96.1452L96.1331 56.5376C96.1331 57.4564 96.327 57.9832 97.1028 57.9832C97.3452 57.9832 97.6846 57.9709 97.9513 57.8851V58.6079C97.6725 58.7182 97.2846 58.755 96.9452 58.755C95.9028 58.755 95.321 58.2282 95.321 56.9173L95.3331 51.2084H93.8301V50.4366Z" fill="#575756"/>
<path d="M100.4 46.5654H101.212V48.158H100.4V46.5654ZM100.388 50.4489H101.2L101.188 58.6447H100.376L100.388 50.4489Z" fill="#575756"/>
<path d="M110.473 56.2436C110.085 57.6892 109.139 58.853 107.321 58.8408C105.297 58.8408 103.854 57.3094 103.854 54.5775C103.854 52.3356 105.042 50.2529 107.43 50.2529C109.491 50.2529 110.327 51.7353 110.473 52.8869H109.648C109.406 51.9313 108.788 51.037 107.418 51.0247C105.697 51.0247 104.727 52.4948 104.715 54.5407C104.715 56.4886 105.612 58.069 107.321 58.069C108.509 58.069 109.224 57.4687 109.648 56.2313L110.473 56.2436Z" fill="#575756"/>
<path d="M113.236 56.4028C113.515 57.4686 114.254 58.1057 115.539 58.1057C116.982 58.1057 117.563 57.4319 117.563 56.5131C117.563 55.582 117.176 55.1165 115.357 54.6754C113.26 54.1609 112.751 53.5239 112.751 52.4458C112.751 51.3187 113.6 50.2651 115.43 50.2651C117.26 50.2651 118.133 51.4045 118.266 52.5683H117.454C117.309 51.8822 116.776 51.0247 115.394 51.0247C113.988 51.0247 113.576 51.723 113.576 52.3845C113.576 53.1441 113.963 53.5116 115.563 53.9159C117.854 54.4794 118.412 55.2267 118.412 56.4641C118.412 57.9587 117.212 58.8775 115.503 58.8652C113.648 58.8652 112.618 57.8729 112.388 56.4028H113.236Z" fill="#575756"/>
<path d="M131.927 56.2803C131.539 57.7259 130.594 58.8898 128.776 58.8775C126.752 58.8775 125.309 57.3462 125.309 54.6142C125.309 52.3723 126.497 50.2897 128.885 50.2897C130.945 50.2897 131.782 51.772 131.927 52.9236H131.103C130.861 51.968 130.242 51.0737 128.873 51.0615C127.152 51.0615 126.182 52.5316 126.17 54.5775C126.17 56.5253 127.067 58.1057 128.776 58.1057C129.964 58.1057 130.679 57.5054 131.103 56.2681L131.927 56.2803Z" fill="#575756"/>
<path d="M141.115 54.602C141.115 56.8807 139.854 58.9143 137.442 58.902C135.248 58.902 133.891 57.0767 133.891 54.602C133.891 52.2621 135.175 50.3142 137.527 50.3142C139.697 50.3142 141.115 52.0171 141.115 54.602ZM134.751 54.602C134.751 56.5499 135.782 58.1302 137.503 58.1302C139.26 58.1302 140.242 56.6724 140.254 54.6143C140.254 52.6786 139.285 51.086 137.491 51.086C135.636 51.0738 134.763 52.6296 134.751 54.602Z" fill="#575756"/>
<path d="M143.781 52.5806C143.781 51.8578 143.781 51.1718 143.769 50.5102H144.569C144.606 50.7675 144.618 51.8333 144.594 52.0661C144.957 51.233 145.624 50.3142 147.285 50.3142C148.727 50.3142 150.012 51.135 150 53.4014L149.988 58.7183H149.175L149.188 53.5362C149.188 52.0783 148.594 51.1228 147.175 51.1228C145.248 51.1228 144.581 52.7399 144.569 54.5285L144.557 58.706H143.745L143.781 52.5806Z" fill="#575756"/>
<path d="M153.273 56.4641C153.552 57.5299 154.291 58.167 155.576 58.167C157.018 58.167 157.6 57.4932 157.6 56.5743C157.6 55.6433 157.212 55.1777 155.394 54.7367C153.297 54.2222 152.788 53.5851 152.788 52.5071C152.788 51.38 153.636 50.3264 155.467 50.3264C157.297 50.3264 158.17 51.4657 158.303 52.6296H157.491C157.346 51.9435 156.812 51.086 155.43 51.086C154.024 51.086 153.612 51.7843 153.612 52.4458C153.612 53.2054 154 53.5729 155.6 53.9772C157.891 54.5407 158.449 55.288 158.449 56.5253C158.449 58.0199 157.249 58.9388 155.539 58.9265C153.685 58.9265 152.655 57.9342 152.424 56.4641H153.273Z" fill="#575756"/>
<path d="M159.866 50.5471H161.369V47.9867H162.181V50.5471H164.109V51.3189H162.181L162.169 56.648C162.169 57.5668 162.363 58.0936 163.139 58.0936C163.381 58.0936 163.721 58.0814 163.987 57.9956V58.7184C163.709 58.8287 163.321 58.8654 162.981 58.8654C161.939 58.8654 161.357 58.3386 161.357 57.0278L161.369 51.3189H159.866V50.5471Z" fill="#575756"/>
<path d="M166.279 52.7887C166.279 51.4166 166.267 50.8163 166.267 50.5591H167.067C167.079 50.8163 167.103 51.3431 167.091 52.3967C167.564 51.1716 168.606 50.4365 169.916 50.363V51.2451C168.231 51.3554 167.091 52.5314 167.091 54.4916L167.079 58.7549H166.267L166.279 52.7887Z" fill="#575756"/>
<path d="M178.06 56.3783C178.06 57.1869 178.073 58.461 178.073 58.7673H177.297C177.26 58.559 177.248 58.0077 177.248 57.3462C176.909 58.314 176.073 58.9633 174.63 58.9633C173.466 58.9633 171.976 58.4977 171.976 55.9863L171.988 50.5592H172.788L172.776 55.7903C172.776 56.9909 173.139 58.1547 174.751 58.1547C176.57 58.1547 177.248 57.1256 177.26 54.7857L177.273 50.5715H178.085L178.06 56.3783Z" fill="#575756"/>
<path d="M187.345 56.3783C186.957 57.8239 186.012 58.9878 184.194 58.9755C182.169 58.9755 180.727 57.4442 180.727 54.7122C180.727 52.4703 181.915 50.3877 184.303 50.3877C186.363 50.3877 187.2 51.87 187.345 53.0216H186.521C186.279 52.0661 185.66 51.1717 184.291 51.1595C182.569 51.1595 181.6 52.6296 181.588 54.6755C181.588 56.6234 182.485 58.2037 184.194 58.2037C185.382 58.2037 186.097 57.6034 186.521 56.3661L187.345 56.3783Z" fill="#575756"/>
<path d="M188.873 50.5961H190.376V48.0356H191.188V50.5961H193.115V51.3679H191.188L191.176 56.697C191.176 57.6158 191.37 58.1426 192.145 58.1426C192.388 58.1426 192.727 58.1303 192.994 58.0446V58.7674C192.715 58.8776 192.327 58.9144 191.988 58.9144C190.945 58.9144 190.363 58.3876 190.363 57.0768L190.376 51.3679H188.873V50.5961Z" fill="#575756"/>
<path d="M201.891 54.7001C201.891 56.9788 200.63 59.0124 198.218 59.0002C196.024 59.0002 194.667 57.1748 194.667 54.7001C194.667 52.3602 195.951 50.4124 198.303 50.4124C200.473 50.4124 201.891 52.1275 201.891 54.7001ZM195.527 54.7001C195.527 56.648 196.557 58.2284 198.279 58.2284C200.036 58.2284 201.018 56.7705 201.03 54.7124C201.03 52.7768 200.06 51.1842 198.267 51.1842C196.412 51.1842 195.539 52.74 195.527 54.7001Z" fill="#575756"/>
<path d="M204.558 52.8501C204.558 51.478 204.545 50.8777 204.545 50.6205H205.345C205.358 50.8777 205.382 51.4045 205.37 52.4581C205.842 51.233 206.885 50.4979 208.194 50.4244V51.3065C206.509 51.4168 205.37 52.5928 205.37 54.553L205.358 58.8163H204.545L204.558 52.8501Z" fill="#575756"/>
<path d="M38.5091 36.3237L34.4242 36.3115L31.2364 12.6796L19.2242 37.5488L7.30909 12.6551L4.08485 36.2747L0 36.2625L5.30909 0L19.2485 29.3285L33.3091 0.0612541L38.5091 36.3237Z" fill="black"/>
<path d="M121.915 36.4709L116.569 36.4586L101.018 18.4621L100.994 36.4341L96.8359 36.4219L96.8965 1.39673L101.054 1.40898L101.03 17.4331L116.375 1.43348L121.587 1.44573L105.297 18.0211L121.915 36.4709Z" fill="black"/>
<path d="M153.406 36.5197L134.497 36.483L134.546 1.47009L153.455 1.50685L153.443 5.24335L138.739 5.21885L138.727 15.5953L152.436 15.6198V19.2828L138.727 19.2583L138.703 32.722L153.406 32.7465V36.5197Z" fill="black"/>
<path d="M218.691 36.63L214.606 36.6178L211.418 12.9859L199.406 37.8551L187.491 12.9614L184.267 36.5688L180.182 36.5565L185.491 0.294067L199.431 29.6226L213.491 0.355322L218.691 36.63Z" fill="black"/>
<path d="M254.024 1.66607L242.897 20.5446L242.873 36.6667L238.666 36.6544L238.691 20.5323L227.624 1.61707L232.218 1.62932L240.8 16.8448L249.43 1.65382L254.024 1.66607Z" fill="black"/>
<path d="M13.3091 0.575627L19.3818 14.1373L26.0364 0.318359L13.3091 0.575627Z" fill="#8CC047"/>
<path d="M194.182 0.881958L200.242 14.5661L205.685 1.02897L194.182 0.881958Z" fill="#D3175C"/>
<path d="M61.6243 26.6456H61.697L63.2728 23.0316H63.2243L69.4303 8.85737L74.9212 21.4022H74.9576L81.4788 36.3972L85.8303 36.4095L69.4425 0.0980225L52.9697 36.3482L57.3697 36.3605L61.6243 26.6456Z" fill="black"/>
<path d="M63.4546 35.895L69.5637 22.2843L75.6364 35.846L63.4546 35.895Z" fill="#FDED4E"/>
<path d="M268 7.2035C268 10.2662 265.551 12.6919 262.461 12.6919C259.37 12.6919 256.897 10.254 256.897 7.19124C256.897 4.12854 259.382 1.73962 262.509 1.73962C265.576 1.73962 268.012 4.14079 268 7.2035ZM258.291 7.19124C258.291 9.61691 260.097 11.5525 262.497 11.5648C264.836 11.6015 266.618 9.64141 266.618 7.24025C266.618 4.81458 264.848 2.8422 262.436 2.8422C260.109 2.82995 258.291 4.79008 258.291 7.19124ZM261.612 10.0212H260.364L260.376 4.55732C260.873 4.49606 261.564 4.39805 262.448 4.39805C263.467 4.39805 263.927 4.56957 264.291 4.83908C264.618 5.07185 264.848 5.47613 264.848 6.00291C264.848 6.66446 264.352 7.10549 263.721 7.3015V7.36276C264.242 7.53427 264.509 7.96305 264.679 8.6981C264.848 9.53115 264.97 9.82517 265.067 10.0334H263.745C263.576 9.83742 263.479 9.37189 263.321 8.6981C263.224 8.13456 262.897 7.86504 262.206 7.86504H261.612V10.0212ZM261.648 6.95848H262.242C262.933 6.95848 263.491 6.72571 263.491 6.16217C263.491 5.65989 263.127 5.32912 262.339 5.32912C262.012 5.32912 261.782 5.36587 261.648 5.39037V6.95848Z" fill="#8CC047"/>
</g>
<defs>
<clipPath id="clip0_1101_19670">
<rect width="268" height="59" fill="white"/>
</clipPath>
</defs>
</svg>
