<svg width="876" height="176" viewBox="0 0 876 176" fill="none" xmlns="http://www.w3.org/2000/svg">
<g clip-path="url(#clip0_935_29145)">
<path d="M21.7308 166.714C20.4572 171.437 17.3527 175.239 11.3826 175.199C4.73583 175.199 -0.000488281 170.196 -0.000488281 161.27C-0.000488281 153.946 3.90001 147.141 11.7408 147.141C18.507 147.141 21.2532 151.985 21.7308 155.747H19.0244C18.2284 152.625 16.1985 149.703 11.701 149.663C6.04926 149.663 2.86518 154.466 2.82538 161.15C2.82538 167.514 5.77066 172.678 11.3826 172.678C15.2831 172.678 17.6313 170.716 19.0244 166.674L21.7308 166.714Z" fill="#575756"/>
<path d="M69.1672 161.19C69.1672 168.635 65.0279 175.279 57.1075 175.239C49.9035 175.239 45.4458 169.275 45.4458 161.19C45.4458 153.545 49.6647 147.181 57.3861 147.181C64.4707 147.181 69.1672 152.785 69.1672 161.19ZM48.2717 161.19C48.2717 167.554 51.6548 172.717 57.3065 172.717C63.0776 172.717 66.3015 167.954 66.3413 161.23C66.3413 154.906 63.1572 149.703 57.2667 149.703C51.1771 149.663 48.2717 154.786 48.2717 161.19Z" fill="#575756"/>
<path d="M95.6674 167.234C96.5828 170.716 99.0107 172.797 103.23 172.797C107.966 172.797 109.876 170.596 109.876 167.594C109.876 164.552 108.603 163.031 102.633 161.59C95.747 159.909 94.0754 157.828 94.0754 154.306C94.0754 150.623 96.8614 147.181 102.871 147.181C108.881 147.181 111.747 150.904 112.185 154.706H109.518C109.041 152.464 107.289 149.663 102.752 149.663C98.1351 149.663 96.7818 151.944 96.7818 154.106C96.7818 156.587 98.0555 157.788 103.309 159.109C110.832 160.95 112.662 163.391 112.662 167.434C112.662 172.317 108.722 175.319 103.11 175.279C97.0207 175.279 93.6376 172.037 92.8813 167.234H95.6674Z" fill="#575756"/>
<path d="M136.416 154.787C136.416 152.465 136.416 149.984 136.376 147.863H139.003C139.043 148.783 139.163 151.065 139.083 152.626C140.197 149.944 142.665 147.222 147.083 147.222C150.824 147.222 153.73 149.103 154.804 152.546C156.158 149.744 158.824 147.262 163.481 147.262C167.58 147.262 171.839 149.624 171.839 157.068L171.799 174.68H169.133L169.173 157.389C169.173 153.786 167.899 149.904 162.964 149.864C157.789 149.864 155.441 154.026 155.441 159.23L155.401 174.64H152.774L152.814 157.389C152.814 153.466 151.66 149.824 146.765 149.824C141.59 149.824 139.083 154.427 139.083 159.87L139.043 174.599H136.376L136.416 154.787Z" fill="#575756"/>
<path d="M198.3 161.671C198.34 168.595 201.803 172.878 206.897 172.878C211.912 172.878 213.624 170.036 214.579 167.875H217.286C216.171 171.397 213.345 175.4 206.778 175.4C198.698 175.4 195.554 168.355 195.554 161.551C195.554 153.906 199.375 147.302 207.136 147.342C215.335 147.342 217.922 154.466 217.922 159.51C217.922 160.27 217.922 160.991 217.883 161.711L198.3 161.671ZM215.176 159.35C215.136 154.066 212.271 149.864 207.057 149.864C201.564 149.864 199.057 153.706 198.46 159.35H215.176Z" fill="#575756"/>
<path d="M241.637 148.022H246.573V139.657H249.239V148.022H255.568V150.544H249.239L249.199 167.955C249.199 170.957 249.836 172.678 252.384 172.678C253.18 172.678 254.294 172.638 255.17 172.357V174.719C254.254 175.079 252.981 175.199 251.866 175.199C248.443 175.199 246.533 173.478 246.533 169.195L246.573 150.544H241.637V148.022Z" fill="#575756"/>
<path d="M279.361 135.374H282.028V140.577H279.361V135.374ZM279.322 148.062H281.988L281.948 174.839H279.282L279.322 148.062Z" fill="#575756"/>
<path d="M327.474 166.994C326.2 171.717 323.096 175.519 317.126 175.479C310.479 175.479 305.743 170.476 305.743 161.551C305.743 154.226 309.643 147.422 317.484 147.422C324.25 147.422 326.996 152.265 327.474 156.027H324.767C323.971 152.905 321.942 149.983 317.444 149.943C311.792 149.943 308.608 154.746 308.569 161.431C308.569 167.795 311.514 172.958 317.126 172.958C321.026 172.958 323.374 170.997 324.767 166.954L327.474 166.994Z" fill="#575756"/>
<path d="M353.973 167.514C354.888 170.996 357.316 173.078 361.535 173.078C366.272 173.078 368.182 170.876 368.182 167.874C368.182 164.832 366.908 163.311 360.938 161.871C354.053 160.189 352.381 158.108 352.381 154.586C352.381 150.904 355.167 147.461 361.177 147.461C367.187 147.461 370.053 151.184 370.491 154.986H367.824C367.346 152.745 365.595 149.943 361.058 149.943C356.441 149.943 355.087 152.224 355.087 154.386C355.087 156.867 356.361 158.068 361.615 159.389C369.137 161.23 370.968 163.672 370.968 167.714C370.968 172.597 367.028 175.599 361.416 175.559C355.326 175.559 351.943 172.317 351.187 167.514H353.973Z" fill="#575756"/>
<path d="M448.593 167.115C447.319 171.838 444.215 175.64 438.245 175.6C431.598 175.6 426.862 170.597 426.862 161.671C426.862 154.347 430.762 147.542 438.603 147.542C445.369 147.542 448.115 152.386 448.593 156.148H445.887C445.09 153.026 443.061 150.104 438.563 150.064C432.911 150.064 429.727 154.867 429.687 161.551C429.687 167.915 432.633 173.079 438.245 173.079C442.145 173.079 444.493 171.117 445.887 167.075L448.593 167.115Z" fill="#575756"/>
<path d="M496.027 161.631C496.027 169.076 491.888 175.72 483.968 175.68C476.764 175.68 472.306 169.716 472.306 161.631C472.306 153.986 476.525 147.622 484.246 147.622C491.371 147.622 496.027 153.186 496.027 161.631ZM475.132 161.631C475.132 167.995 478.515 173.158 484.167 173.158C489.938 173.158 493.162 168.395 493.202 161.671C493.202 155.347 490.018 150.144 484.127 150.144C478.037 150.104 475.172 155.187 475.132 161.631Z" fill="#575756"/>
<path d="M519.861 155.027C519.861 152.665 519.861 150.424 519.821 148.262H522.448C522.568 149.103 522.607 152.585 522.528 153.346C523.722 150.624 525.911 147.622 531.364 147.622C536.1 147.622 540.319 150.304 540.279 157.708L540.239 175.079H537.573L537.612 158.149C537.612 153.386 535.662 150.264 531.005 150.264C524.677 150.264 522.488 155.547 522.448 161.391L522.408 175.039H519.742L519.861 155.027Z" fill="#575756"/>
<path d="M566.781 167.714C567.696 171.196 570.124 173.277 574.343 173.277C579.079 173.277 580.99 171.076 580.99 168.074C580.99 165.032 579.716 163.511 573.746 162.07C566.86 160.389 565.189 158.308 565.189 154.786C565.189 151.103 567.975 147.661 573.985 147.661C579.995 147.661 582.86 151.383 583.298 155.186H580.631C580.154 152.944 578.403 150.143 573.865 150.143C569.248 150.143 567.895 152.424 567.895 154.586C567.895 157.067 569.169 158.268 574.422 159.589C581.945 161.43 583.776 163.871 583.776 167.914C583.776 172.797 579.835 175.799 574.224 175.759C568.134 175.759 564.751 172.517 563.995 167.714H566.781Z" fill="#575756"/>
<path d="M607.49 148.382H612.425V140.017H615.092V148.382H621.42V150.903H615.092L615.052 168.315C615.052 171.316 615.689 173.037 618.236 173.037C619.032 173.037 620.146 172.997 621.022 172.717V175.079C620.107 175.439 618.833 175.559 617.719 175.559C614.296 175.559 612.385 173.838 612.385 169.555L612.425 150.903H607.49V148.382Z" fill="#575756"/>
<path d="M645.174 155.707C645.174 151.224 645.134 149.263 645.134 148.422H647.761C647.801 149.263 647.881 150.984 647.841 154.426C649.393 150.423 652.816 148.022 657.114 147.782V150.664C651.582 151.024 647.841 154.866 647.841 161.27L647.801 175.199H645.134L645.174 155.707Z" fill="#575756"/>
<path d="M700.81 167.434C700.81 170.076 700.85 174.239 700.85 175.239H698.302C698.183 174.559 698.143 172.758 698.143 170.596C697.029 173.758 694.282 175.88 689.546 175.88C685.725 175.88 680.83 174.359 680.83 166.154L680.869 148.422H683.496L683.456 165.513C683.456 169.436 684.65 173.238 689.944 173.238C695.914 173.238 698.143 169.876 698.183 162.231L698.223 148.462H700.889L700.81 167.434Z" fill="#575756"/>
<path d="M746.335 167.434C745.062 172.157 741.957 175.959 735.987 175.919C729.34 175.919 724.604 170.916 724.604 161.991C724.604 154.666 728.505 147.862 736.345 147.862C743.112 147.862 745.858 152.705 746.335 156.467H743.629C742.833 153.345 740.803 150.423 736.305 150.383C730.654 150.383 727.47 155.186 727.43 161.871C727.43 168.235 730.375 173.398 735.987 173.398C739.888 173.398 742.236 171.437 743.629 167.394L746.335 167.434Z" fill="#575756"/>
<path d="M770.048 148.542H774.984V140.176H777.65V148.542H783.979V151.063H777.65L777.611 168.474C777.611 171.476 778.247 173.197 780.795 173.197C781.591 173.197 782.705 173.157 783.581 172.877V175.238C782.665 175.599 781.392 175.719 780.277 175.719C776.854 175.719 774.944 173.998 774.944 169.715L774.984 151.063H770.048V148.542Z" fill="#575756"/>
<path d="M831.414 161.95C831.414 169.395 827.275 176.039 819.355 175.999C812.151 175.999 807.693 170.035 807.693 161.95C807.693 154.305 811.912 147.941 819.633 147.941C826.758 147.941 831.414 153.545 831.414 161.95ZM810.519 161.95C810.519 168.314 813.902 173.478 819.554 173.478C825.325 173.478 828.549 168.715 828.589 161.99C828.589 155.666 825.405 150.463 819.514 150.463C813.424 150.463 810.559 155.546 810.519 161.95Z" fill="#575756"/>
<path d="M855.17 155.907C855.17 151.425 855.131 149.463 855.131 148.623H857.757C857.797 149.463 857.877 151.184 857.837 154.627C859.389 150.624 862.812 148.223 867.111 147.982V150.864C861.578 151.224 857.837 155.067 857.837 161.471L857.797 175.4H855.131L855.17 155.907Z" fill="#575756"/>
<path d="M126.448 104.545L113.035 104.51L102.567 36.4937L63.1244 108.071L24 36.4232L13.4129 104.404L0 104.369L17.4328 0L63.204 84.4116L109.373 0.176298L126.448 104.545Z" fill="black"/>
<path d="M400.319 104.968L382.766 104.933L331.702 53.1362L331.622 104.862L317.97 104.827L318.169 4.01953L331.821 4.05479L331.742 50.1744L382.13 4.12531L399.244 4.16057L345.752 51.8669L400.319 104.968Z" fill="black"/>
<path d="M503.72 105.108L441.631 105.003L441.79 4.23047L503.879 4.33625L503.84 15.0904L455.561 15.0199L455.521 44.8848L500.536 44.9554V55.498L455.521 55.4275L455.442 94.1778L503.72 94.2483V105.108Z" fill="black"/>
<path d="M718.09 105.426L704.677 105.391L694.21 37.3752L654.767 108.952L615.643 37.3047L605.056 105.25L591.643 105.215L609.075 0.846191L654.847 85.2578L701.016 1.02249L718.09 105.426Z" fill="black"/>
<path d="M834.109 4.79485L797.572 59.13L797.492 105.532L783.681 105.496L783.761 59.0947L747.423 4.65381L762.507 4.68907L790.686 48.4816L819.025 4.75959L834.109 4.79485Z" fill="black"/>
<path d="M43.7009 1.65696L63.6412 40.6894L85.492 0.916504L43.7009 1.65696Z" fill="#8CC047"/>
<path d="M637.611 2.53809L657.512 41.9231L675.382 2.9612L637.611 2.53809Z" fill="#D3175C"/>
<path d="M202.347 76.6899H202.586L207.76 66.2883H207.601L227.979 25.4929L246.009 61.5988H246.128L267.541 104.757L281.83 104.792L228.019 0.282227L173.929 104.616L188.377 104.651L202.347 76.6899Z" fill="black"/>
<path d="M208.357 103.311L228.417 64.1371L248.357 103.17L208.357 103.311Z" fill="#FDED4E"/>
<path d="M867.154 13.3777C867.154 18.3302 862.636 22.2526 856.934 22.2526C851.232 22.2526 846.67 18.3104 846.67 13.3579C846.67 8.40542 851.255 4.54248 857.024 4.54248C862.681 4.54248 867.176 8.42523 867.154 13.3777ZM849.242 13.3579C849.242 17.2803 852.574 20.4103 857.001 20.4301C861.317 20.4895 864.604 17.3199 864.604 13.4372C864.604 9.51478 861.34 6.32538 856.89 6.32538C852.596 6.30557 849.242 9.47516 849.242 13.3579ZM855.369 17.934H853.066L853.088 9.09877C854.005 8.99972 855.28 8.84124 856.912 8.84124C858.79 8.84124 859.64 9.11858 860.311 9.5544C860.915 9.93079 861.34 10.5845 861.34 11.4363C861.34 12.5061 860.423 13.2192 859.26 13.5362V13.6353C860.221 13.9126 860.713 14.6059 861.026 15.7945C861.34 17.1416 861.563 17.6171 861.742 17.9538H859.305C858.992 17.6369 858.813 16.8841 858.522 15.7945C858.343 14.8833 857.739 14.4475 856.465 14.4475H855.369V17.934ZM855.436 12.9815H856.532C857.806 12.9815 858.835 12.6051 858.835 11.6939C858.835 10.8817 858.164 10.3468 856.711 10.3468C856.107 10.3468 855.682 10.4062 855.436 10.4458V12.9815Z" fill="black"/>
</g>
<defs>
<clipPath id="clip0_935_29145">
<rect width="875.81" height="176" fill="white"/>
</clipPath>
</defs>
</svg>
