<svg width="269" height="54" viewBox="0 0 269 54" fill="none" xmlns="http://www.w3.org/2000/svg">
<path d="M6.66757 51.1509C6.2768 52.5999 5.32429 53.7666 3.49254 53.7543C1.45319 53.7543 0 52.2193 0 49.4807C0 47.2334 1.19674 45.1457 3.60244 45.1457C5.67843 45.1457 6.52103 46.6316 6.66757 47.786H5.83718C5.59294 46.8281 4.97015 45.9316 3.59023 45.9194C1.85617 45.9194 0.879239 47.393 0.867027 49.4439C0.867027 51.3965 1.77069 52.9806 3.49254 52.9806C4.68928 52.9806 5.40977 52.3789 5.83718 51.1386L6.66757 51.1509Z" fill="white"/>
<path d="M21.222 49.4564C21.222 51.7406 19.952 53.7792 17.5219 53.7669C15.3116 53.7669 13.9438 51.9371 13.9438 49.4564C13.9438 47.1109 15.2383 45.1583 17.6073 45.1583C19.781 45.1583 21.222 46.8775 21.222 49.4564ZM14.8109 49.4564C14.8109 51.409 15.8489 52.9932 17.5829 52.9932C19.3536 52.9932 20.3428 51.5318 20.355 49.4687C20.355 47.5284 19.378 45.9319 17.5707 45.9319C15.7023 45.9197 14.8109 47.4916 14.8109 49.4564Z" fill="white"/>
<path d="M29.3524 51.3108C29.6332 52.3792 30.3782 53.0178 31.6726 53.0178C33.1258 53.0178 33.7119 52.3424 33.7119 51.4213C33.7119 50.488 33.3212 50.0213 31.4894 49.5792C29.3768 49.0635 28.8639 48.4249 28.8639 47.3442C28.8639 46.2144 29.7187 45.1583 31.5627 45.1583C33.4067 45.1583 34.2859 46.3004 34.4202 47.467H33.602C33.4555 46.7793 32.9182 45.9197 31.5261 45.9197C30.1095 45.9197 29.6943 46.6196 29.6943 47.2828C29.6943 48.0442 30.0851 48.4126 31.697 48.8179C34.005 49.3828 34.5668 50.1319 34.5668 51.3722C34.5668 52.8704 33.3578 53.7915 31.636 53.7792C29.7676 53.7792 28.7296 52.7845 28.4976 51.3108H29.3524Z" fill="white"/>
<path d="M41.855 47.4912C41.855 46.7789 41.855 46.0175 41.8428 45.3667H42.6487C42.661 45.6491 42.6976 46.3491 42.6732 46.828C43.0151 46.0052 43.7722 45.1702 45.1277 45.1702C46.2756 45.1702 47.1671 45.7473 47.4968 46.8035C47.912 45.9438 48.7302 45.1824 50.1589 45.1824C51.4167 45.1824 52.7234 45.907 52.7234 48.1912L52.7112 53.5946H51.893L51.9052 48.2894C51.9052 47.1842 51.5144 45.993 50.0002 45.9807C48.4126 45.9807 47.6922 47.2579 47.6922 48.8543L47.68 53.5823H46.874L46.8862 48.2894C46.8862 47.0859 46.5321 45.9684 45.03 45.9684C43.4425 45.9684 42.6732 47.3807 42.6732 49.0508L42.661 53.57H41.8428L41.855 47.4912Z" fill="white"/>
<path d="M60.8421 49.6037C60.8543 51.7282 61.9167 53.0422 63.4798 53.0422C65.0185 53.0422 65.5436 52.1703 65.8367 51.5072H66.6671C66.3252 52.5878 65.4581 53.8159 63.4432 53.8159C60.9642 53.8159 59.9995 51.6545 59.9995 49.5668C59.9995 47.2213 61.1718 45.195 63.5531 45.2073C66.0687 45.2073 66.8625 47.3932 66.8625 48.9405C66.8625 49.1739 66.8625 49.3949 66.8503 49.616L60.8421 49.6037ZM66.0199 48.8914C66.0076 47.2704 65.1284 45.9809 63.5287 45.9809C61.8435 45.9809 61.0741 47.1599 60.891 48.8914H66.0199Z" fill="white"/>
<path d="M74.1387 45.4159H75.6529V42.8492H76.4711V45.4159H78.4128V46.1895H76.4711L76.4589 51.5316C76.4589 52.4526 76.6543 52.9806 77.4358 52.9806C77.6801 52.9806 78.022 52.9684 78.2907 52.8824V53.607C78.0098 53.7175 77.619 53.7543 77.2771 53.7543C76.2269 53.7543 75.6407 53.2263 75.6407 51.9122L75.6529 46.1895H74.1387V45.4159Z" fill="white"/>
<path d="M85.7134 41.5353H86.5316V43.1317H85.7134V41.5353ZM85.7012 45.4282H86.5194L86.5072 53.6439H85.689L85.7012 45.4282Z" fill="white"/>
<path d="M100.475 51.2368C100.084 52.6859 99.1319 53.8526 97.3001 53.8403C95.2608 53.8403 93.8076 52.3052 93.8076 49.5667C93.8076 47.3194 95.0044 45.2317 97.41 45.2317C99.486 45.2317 100.329 46.7176 100.475 47.872H99.6448C99.4005 46.9141 98.7778 46.0176 97.3978 46.0054C95.6638 46.0054 94.6869 47.479 94.6746 49.5299C94.6746 51.4825 95.5783 53.0666 97.3001 53.0666C98.4969 53.0666 99.2174 52.4649 99.6448 51.2246L100.475 51.2368Z" fill="white"/>
<path d="M108.606 51.3968C108.887 52.4652 109.632 53.1038 110.926 53.1038C112.379 53.1038 112.965 52.4283 112.965 51.5073C112.965 50.574 112.575 50.1073 110.743 49.6652C108.63 49.1495 108.117 48.5109 108.117 47.4302C108.117 46.3004 108.972 45.2443 110.816 45.2443C112.66 45.2443 113.539 46.3863 113.674 47.553H112.855C112.709 46.8653 112.172 46.0057 110.779 46.0057C109.363 46.0057 108.948 46.7056 108.948 47.3688C108.948 48.1302 109.338 48.4986 110.95 48.9038C113.258 49.4687 113.82 50.2179 113.82 51.4582C113.82 52.9564 112.611 53.8774 110.889 53.8652C109.021 53.8652 107.983 52.8704 107.751 51.3968H108.606Z" fill="white"/>
<path d="M137.636 51.2739C137.246 52.723 136.293 53.8897 134.461 53.8774C132.422 53.8774 130.969 52.3423 130.969 49.6038C130.969 47.3564 132.166 45.2687 134.571 45.2687C136.647 45.2687 137.49 46.7547 137.636 47.909H136.806C136.562 46.9512 135.939 46.0547 134.559 46.0424C132.825 46.0424 131.848 47.5161 131.836 49.5669C131.836 51.5195 132.739 53.1037 134.461 53.1037C135.658 53.1037 136.379 52.502 136.806 51.2616L137.636 51.2739Z" fill="white"/>
<path d="M152.19 49.5914C152.19 51.8756 150.92 53.9141 148.49 53.9018C146.28 53.9018 144.912 52.072 144.912 49.5914C144.912 47.2458 146.207 45.2932 148.576 45.2932C150.761 45.2932 152.19 47.0002 152.19 49.5914ZM145.779 49.5914C145.779 51.544 146.817 53.1282 148.551 53.1282C150.322 53.1282 151.311 51.6668 151.323 49.6037C151.323 47.6633 150.346 46.0669 148.539 46.0669C146.671 46.0546 145.791 47.6142 145.779 49.5914Z" fill="white"/>
<path d="M159.503 47.5651C159.503 46.8406 159.503 46.1528 159.491 45.4897H160.297C160.333 45.7476 160.346 46.816 160.321 47.0493C160.687 46.2143 161.359 45.2932 163.032 45.2932C164.485 45.2932 165.78 46.116 165.768 48.3879L165.755 53.7176H164.937L164.949 48.523C164.949 47.0616 164.351 46.1037 162.922 46.1037C160.981 46.1037 160.309 47.7247 160.297 49.5177L160.284 53.7053H159.466L159.503 47.5651Z" fill="white"/>
<path d="M173.899 51.4577C174.18 52.5261 174.925 53.1647 176.219 53.1647C177.672 53.1647 178.258 52.4893 178.258 51.5682C178.258 50.6349 177.868 50.1682 176.036 49.7261C173.923 49.2104 173.41 48.5718 173.41 47.4911C173.41 46.3613 174.265 45.3052 176.109 45.3052C177.953 45.3052 178.832 46.4473 178.967 47.6139H178.148C178.002 46.9262 177.465 46.0666 176.072 46.0666C174.656 46.0666 174.241 46.7666 174.241 47.4297C174.241 48.1911 174.631 48.5595 176.243 48.9648C178.551 49.5297 179.113 50.2788 179.113 51.5191C179.113 53.0173 177.904 53.9384 176.182 53.9261C174.314 53.9261 173.276 52.9314 173.044 51.4577H173.899Z" fill="white"/>
<path d="M186.389 45.5263H187.903V42.9597H188.722V45.5263H190.663V46.3H188.722L188.709 51.642C188.709 52.5631 188.905 53.0911 189.686 53.0911C189.931 53.0911 190.272 53.0788 190.541 52.9929V53.7174C190.26 53.828 189.869 53.8648 189.528 53.8648C188.477 53.8648 187.891 53.3367 187.891 52.0227L187.903 46.3H186.389V45.5263Z" fill="white"/>
<path d="M197.952 47.7738C197.952 46.3983 197.939 45.7966 197.939 45.5387H198.745C198.758 45.7966 198.782 46.3247 198.77 47.3808C199.246 46.1527 200.296 45.4159 201.615 45.3422V46.2264C199.918 46.3369 198.77 47.5159 198.77 49.4808L198.758 53.7544H197.939L197.952 47.7738Z" fill="white"/>
<path d="M215.021 51.3719C215.021 52.1825 215.034 53.4596 215.034 53.7666H214.252C214.215 53.5579 214.203 53.0052 214.203 52.3421C213.861 53.3123 213.019 53.9631 211.565 53.9631C210.393 53.9631 208.891 53.4965 208.891 50.979L208.903 45.5387H209.709L209.697 50.7825C209.697 51.986 210.063 53.1526 211.688 53.1526C213.519 53.1526 214.203 52.121 214.215 49.7755L214.228 45.551H215.046L215.021 51.3719Z" fill="white"/>
<path d="M228.989 51.3719C228.599 52.821 227.646 53.9876 225.814 53.9753C223.775 53.9753 222.322 52.4403 222.322 49.7017C222.322 47.4544 223.519 45.3667 225.924 45.3667C228 45.3667 228.843 46.8526 228.989 48.007H228.159C227.915 47.0491 227.292 46.1526 225.912 46.1404C224.178 46.1404 223.201 47.614 223.189 49.6649C223.189 51.6175 224.092 53.2017 225.814 53.2017C227.011 53.2017 227.732 52.5999 228.159 51.3596L228.989 51.3719Z" fill="white"/>
<path d="M236.265 45.5754H237.779V43.0087H238.598V45.5754H240.539V46.349H238.598L238.585 51.691C238.585 52.6121 238.781 53.1401 239.562 53.1401C239.807 53.1401 240.148 53.1279 240.417 53.0419V53.7664C240.136 53.877 239.745 53.9138 239.404 53.9138C238.353 53.9138 237.767 53.3857 237.767 52.0717L237.779 46.349H236.265V45.5754Z" fill="white"/>
<path d="M255.094 49.6894C255.094 51.9735 253.824 54.0121 251.393 53.9998C249.183 53.9998 247.815 52.17 247.815 49.6894C247.815 47.3438 249.11 45.3912 251.479 45.3912C253.665 45.3912 255.094 47.1104 255.094 49.6894ZM248.682 49.6894C248.682 51.642 249.72 53.2261 251.454 53.2261C253.225 53.2261 254.214 51.7648 254.227 49.7016C254.227 47.7613 253.25 46.1648 251.442 46.1648C249.574 46.1648 248.695 47.7245 248.682 49.6894Z" fill="white"/>
<path d="M262.382 47.8353C262.382 46.4599 262.37 45.8581 262.37 45.6002H263.176C263.188 45.8581 263.212 46.3862 263.2 47.4423C263.676 46.2143 264.726 45.4774 266.045 45.4037V46.2879C264.348 46.3985 263.2 47.5774 263.2 49.5423L263.188 53.8159H262.37L262.382 47.8353Z" fill="white"/>
<path d="M38.7965 32.0763L34.6811 32.0654L31.4695 11.1969L19.3677 33.1581L7.36364 11.1753L4.11533 32.033L0 32.0222L5.34871 0L19.3921 25.899L33.5577 0.0540915L38.7965 32.0763Z" fill="white"/>
<path d="M122.825 32.2058L117.44 32.195L101.772 16.3029L101.748 32.1733L97.5591 32.1625L97.6201 1.23297L101.809 1.24379L101.784 15.3941L117.244 1.26543L122.495 1.27624L106.083 15.9134L122.825 32.2058Z" fill="white"/>
<path d="M154.551 32.2488L135.5 32.2164L135.549 1.29767L154.6 1.33012L154.587 4.62971L139.775 4.60807L139.762 13.7712L153.574 13.7928V17.0275L139.762 17.0058L139.738 28.8952L154.551 28.9168V32.2488Z" fill="white"/>
<path d="M220.323 32.347L216.208 32.3362L212.996 11.4677L200.895 33.4288L188.89 11.446L185.642 32.2929L181.527 32.2821L186.876 0.259888L200.919 26.1589L215.085 0.313979L220.323 32.347Z" fill="white"/>
<path d="M255.92 1.4715L244.709 18.1425L244.685 32.3794L240.448 32.3686L240.472 18.1317L229.323 1.42822L233.951 1.43904L242.597 14.8754L251.292 1.46068L255.92 1.4715Z" fill="white"/>
<path d="M13.4082 0.508434L19.5262 12.4843L26.2305 0.28125L13.4082 0.508434Z" fill="#8CC047"/>
<path d="M195.631 0.779114L201.737 12.8632L207.22 0.908933L195.631 0.779114Z" fill="#D3175C"/>
<path d="M62.0839 23.5299H62.1572L63.7447 20.3385H63.6958L69.9482 7.8217L75.4801 18.8996H75.5167L82.0866 32.1412L86.4706 32.1521L69.9604 0.0866089L53.3647 32.098L57.7976 32.1088L62.0839 23.5299Z" fill="white"/>
<path d="M63.9277 31.6972L70.0824 19.6781L76.2005 31.654L63.9277 31.6972Z" fill="#FDED4E"/>
<path d="M266.059 4.10449C266.059 5.624 264.673 6.82746 262.923 6.82746C261.174 6.82746 259.774 5.61793 259.774 4.09841C259.774 2.5789 261.18 1.39368 262.951 1.39368C264.686 1.39368 266.065 2.58498 266.059 4.10449ZM260.563 4.09841C260.563 5.30187 261.585 6.2622 262.944 6.26828C264.268 6.28651 265.276 5.31402 265.276 4.12272C265.276 2.91927 264.275 1.9407 262.909 1.9407C261.592 1.93462 260.563 2.90711 260.563 4.09841ZM262.443 5.50244H261.736L261.743 2.79163C262.024 2.76124 262.415 2.71261 262.916 2.71261C263.493 2.71261 263.753 2.79771 263.959 2.93142C264.144 3.04691 264.275 3.24748 264.275 3.50884C264.275 3.83706 263.993 4.05587 263.637 4.15311V4.1835C263.932 4.2686 264.083 4.48133 264.179 4.84601C264.275 5.25932 264.343 5.40519 264.398 5.50852H263.65C263.554 5.41127 263.499 5.18031 263.41 4.84601C263.355 4.56642 263.17 4.4327 262.779 4.4327H262.443V5.50244ZM262.463 3.98293H262.8C263.191 3.98293 263.506 3.86745 263.506 3.58785C263.506 3.33865 263.3 3.17455 262.854 3.17455C262.669 3.17455 262.539 3.19278 262.463 3.20494V3.98293Z" fill="white"/>
</svg>
