<svg width="22" height="22" viewBox="0 0 22 22" fill="none" xmlns="http://www.w3.org/2000/svg">
<path fill-rule="evenodd" clip-rule="evenodd" d="M2.04489 10.6752C2.04489 15.5456 5.57609 18.864 9.54249 19.5504C9.65038 19.5691 9.75353 19.6089 9.84606 19.6674C9.93858 19.726 10.0187 19.8022 10.0817 19.8917C10.1448 19.9812 10.1896 20.0823 10.2136 20.1891C10.2377 20.296 10.2404 20.4065 10.2217 20.5144C10.203 20.6223 10.1632 20.7254 10.1047 20.818C10.0461 20.9105 9.96987 20.9906 9.88035 21.0536C9.79084 21.1167 9.68978 21.1615 9.58294 21.1855C9.4761 21.2095 9.36558 21.2123 9.25769 21.1936C4.60009 20.3872 0.377686 16.4608 0.377686 10.6752C0.377686 8.21598 1.49609 6.28318 2.80169 4.81438C3.73769 3.76158 4.80809 2.90558 5.66889 2.25118H3.05129C2.83911 2.25118 2.63563 2.1669 2.4856 2.01687C2.33557 1.86684 2.25129 1.66336 2.25129 1.45118C2.25129 1.23901 2.33557 1.03553 2.4856 0.885499C2.63563 0.73547 2.83911 0.651184 3.05129 0.651184H7.85129C8.06346 0.651184 8.26694 0.73547 8.41697 0.885499C8.567 1.03553 8.65129 1.23901 8.65129 1.45118V6.25118C8.65129 6.46336 8.567 6.66684 8.41697 6.81687C8.26694 6.9669 8.06346 7.05118 7.85129 7.05118C7.63911 7.05118 7.43563 6.9669 7.2856 6.81687C7.13557 6.66684 7.05129 6.46336 7.05129 6.25118V3.29758L7.04969 3.30078C6.13449 3.98878 5.01769 4.83198 4.04969 5.92158C2.90569 7.20798 2.04489 8.76318 2.04489 10.6736V10.6752ZM19.8177 11.3248C19.8177 6.50558 16.3617 3.20798 12.4465 2.47198C12.3374 2.45347 12.233 2.41341 12.1395 2.35414C12.0461 2.29487 11.9653 2.21758 11.902 2.12678C11.8388 2.03597 11.7942 1.93348 11.7709 1.82526C11.7477 1.71705 11.7462 1.60529 11.7666 1.49651C11.787 1.38772 11.8289 1.28409 11.8897 1.19165C11.9506 1.09921 12.0293 1.01982 12.1212 0.958114C12.2131 0.896405 12.3163 0.853612 12.4249 0.832232C12.5335 0.810851 12.6453 0.811311 12.7537 0.833584C17.3521 1.69758 21.4849 5.60158 21.4849 11.3248C21.4849 13.784 20.3665 15.7152 19.0609 17.1856C18.1249 18.2384 17.0545 19.0944 16.1937 19.7488H18.8113C19.0235 19.7488 19.2269 19.8331 19.377 19.9831C19.527 20.1331 19.6113 20.3366 19.6113 20.5488C19.6113 20.761 19.527 20.9644 19.377 21.1145C19.2269 21.2645 19.0235 21.3488 18.8113 21.3488H14.0113C13.7991 21.3488 13.5956 21.2645 13.4456 21.1145C13.2956 20.9644 13.2113 20.761 13.2113 20.5488V15.7488C13.2113 15.5366 13.2956 15.3331 13.4456 15.1831C13.5956 15.0331 13.7991 14.9488 14.0113 14.9488C14.2235 14.9488 14.4269 15.0331 14.577 15.1831C14.727 15.3331 14.8113 15.5366 14.8113 15.7488V18.7008H14.8145C15.7281 18.0096 16.8465 17.168 17.8129 16.0768C18.9569 14.792 19.8177 13.2368 19.8177 11.3248Z" fill="white" stroke="white" stroke-width="0.4"/>
</svg>
