<svg width="30" height="30" viewBox="0 0 30 30" fill="none" xmlns="http://www.w3.org/2000/svg">
<path d="M21.9151 29.7311C22.6695 29.324 23.1258 28.5222 23.0953 27.6592L22.8216 19.8123L29.091 15.1391C29.7785 14.628 30.1161 13.765 29.964 12.9203C29.8119 12.0726 29.1944 11.387 28.3731 11.1514L20.8717 8.98769L18.3895 1.54175C18.1187 0.72462 17.41 0.137024 16.5613 0.0207288C15.7126 -0.0955663 14.873 0.283923 14.3954 0.996996L10.0333 7.5034L2.22766 7.57685C1.37287 7.58603 0.594138 8.08181 0.223022 8.85609C-0.148094 9.63038 -0.050752 10.5516 0.475503 11.231L5.28176 17.4191L2.93947 24.9079C2.82692 25.2659 2.80867 25.6363 2.87255 25.9882C2.95468 26.4503 3.17978 26.8818 3.52961 27.2185C4.14712 27.8122 5.04753 28.005 5.8506 27.7081L13.1847 25.0211L19.5424 29.578C20.242 30.0799 21.1607 30.1381 21.9151 29.7311Z" fill="#FFCE00"/>
<path d="M11.6219 16.8959C11.4389 18.113 12.2711 19.253 13.4809 19.4371C14.6907 19.6211 15.8238 18.784 16.0067 17.5668C16.1897 16.3496 15.3576 15.2097 14.1478 15.0256C12.932 14.8416 11.8048 15.6787 11.6219 16.8959Z" fill="#471C14"/>
<path d="M12.2051 18.7661C12.5356 19.1105 12.9723 19.3598 13.4798 19.437C14.4005 19.5795 15.2798 19.1223 15.7224 18.3564C15.4273 17.8874 14.9434 17.543 14.3532 17.4539C13.4031 17.3055 12.5061 17.8814 12.2051 18.7661Z" fill="#E85B5B"/>
<path d="M6.64643 13.9166C6.50697 14.8255 7.13151 15.6795 8.03497 15.8137C8.93842 15.954 9.7873 15.3257 9.9207 14.4168C10.0602 13.5078 9.43563 12.6538 8.53217 12.5196C7.62871 12.3793 6.78589 13.0076 6.64643 13.9166Z" fill="#E85B5B"/>
<path d="M19.0712 15.5833C18.9318 16.4922 19.5563 17.3463 20.4598 17.4805C21.3632 17.6208 22.2121 16.9925 22.3455 16.0835C22.485 15.1746 21.8604 14.3206 20.957 14.1863C20.0535 14.046 19.2107 14.6744 19.0712 15.5833Z" fill="#E85B5B"/>
<path d="M16.8026 13.0684C16.6508 13.0411 16.5478 12.8938 16.5694 12.7411C16.7538 11.5191 17.8925 10.6735 19.1071 10.859C20.3326 11.0445 21.1622 12.1901 20.9778 13.4121C20.9561 13.5703 20.8097 13.6794 20.6525 13.6521C20.5061 13.6358 20.3868 13.483 20.4139 13.3248C20.5495 12.4192 19.9313 11.5682 19.0258 11.4318C18.1257 11.2954 17.2798 11.9228 17.1442 12.8284C17.1225 12.9866 16.9761 13.0957 16.8189 13.0684C16.808 13.0739 16.8026 13.0684 16.8026 13.0684Z" fill="#471C14"/>
<path d="M9.15002 11.8959C9.00149 11.8692 8.9007 11.7251 8.92192 11.5757C9.00679 10.9939 9.31446 10.4869 9.78127 10.1401C10.2481 9.79316 10.8263 9.64906 11.3992 9.73445C11.9774 9.81984 12.4813 10.1294 12.8261 10.599C13.1709 11.0687 13.3142 11.6504 13.2293 12.2268C13.2081 12.3815 13.0648 12.4883 12.911 12.4616C12.7519 12.4456 12.6511 12.2961 12.6776 12.1414C12.7413 11.7091 12.6352 11.2821 12.3805 10.9299C12.1259 10.5777 11.7493 10.3482 11.3196 10.2841C10.8899 10.2201 10.4656 10.3268 10.1155 10.583C9.76535 10.8392 9.54256 11.2181 9.4736 11.6504C9.45238 11.8051 9.30915 11.9119 9.15532 11.8852C9.15532 11.8959 9.15002 11.8959 9.15002 11.8959Z" fill="#471C14"/>
</svg>
