<svg width="22" height="30" viewBox="0 0 22 30" fill="none" xmlns="http://www.w3.org/2000/svg">
<path d="M20.0396 25.2031C20.3656 24.2915 20.4388 23.3464 20.375 22.3846V22.387C20.2049 20.5949 20.0349 18.8028 19.8648 17.0083C20.1884 20.4107 15.4659 20.0007 13.5123 20.0568C10.6397 19.5496 7.4857 18.2007 5.97145 15.5617C5.2037 14.2242 4.94204 12.6059 6.17517 11.5125C4.81684 12.7183 3.43253 13.9003 2.10018 15.1373C2.12381 15.1158 2.14507 15.0942 2.16869 15.0751C2.13326 15.1062 2.10254 15.1349 2.07183 15.166C2.07892 15.1612 2.08365 15.154 2.08837 15.1493C-0.195984 17.1758 -0.503085 20.3867 0.666259 23.0856C0.663897 23.0832 0.663897 23.0808 0.661535 23.0784C0.725317 23.2196 0.791462 23.3608 0.859969 23.4995C0.838708 23.4541 0.815085 23.4086 0.793824 23.3679C2.83014 27.4881 7.67051 29.9142 12.1069 29.9979C13.3448 30.0219 14.6086 29.8424 15.7614 29.3782C15.7567 29.3806 15.7496 29.383 15.7425 29.3854C15.8465 29.3447 15.9504 29.3017 16.0544 29.2586C16.0496 29.261 16.0473 29.261 16.0425 29.2634C16.7253 28.9763 17.3631 28.6198 17.9442 28.1556C18.9033 27.3995 19.6403 26.3659 20.0396 25.2031ZM0.980447 23.7388C0.980447 23.7364 0.978084 23.734 0.978084 23.7316C1.00643 23.7843 1.03714 23.8369 1.06785 23.8895C1.0395 23.8393 1.00879 23.789 0.980447 23.7388ZM15.2512 29.5577C15.2464 29.5601 15.2417 29.5601 15.237 29.5625C15.2441 29.5601 15.2488 29.5601 15.2512 29.5577Z" fill="#A1C9EC"/>
<path d="M18.6362 24.2956C18.9082 23.5451 18.9693 22.7671 18.9161 21.9754V21.9773C18.7742 20.5021 18.6322 19.0268 18.4903 17.5496C18.7604 20.3504 15.1467 20.3999 13.1892 20.0592C10.792 19.6416 8.16005 18.5312 6.89643 16.3587C6.25575 15.2577 6.0374 13.9255 7.06643 13.0254C5.93292 14.0181 4.77772 14.9911 3.66589 16.0094C3.6856 15.9916 3.70334 15.9739 3.72305 15.9582C3.69884 15.9791 3.67726 15.9988 3.65617 16.0193C3.65449 16.0209 3.65437 16.0209 3.65603 16.0192C1.75067 17.6867 1.49373 20.3282 2.46788 22.5493C2.46817 22.5499 2.46767 22.5502 2.46735 22.5496C2.46702 22.5489 2.46656 22.5492 2.46686 22.5499C2.51962 22.665 2.57431 22.7801 2.63094 22.8932C2.61319 22.8558 2.59348 22.8184 2.57574 22.7849C4.27503 26.1766 8.31428 28.1738 12.0164 28.2427C13.0494 28.2624 14.1041 28.1147 15.0661 27.7326C15.0621 27.7345 15.0562 27.7365 15.0503 27.7385C15.1371 27.705 15.2238 27.6695 15.3105 27.6341C15.3066 27.6361 15.3046 27.6361 15.3007 27.638C15.8704 27.4017 16.4027 27.1082 16.8876 26.7261C17.688 26.1037 18.303 25.2528 18.6362 24.2956ZM2.73167 23.0905C2.73154 23.0903 2.73148 23.0901 2.73145 23.0898C2.73127 23.0882 2.73158 23.0881 2.73233 23.0894C2.75519 23.131 2.7798 23.1726 2.80441 23.2143C2.78082 23.173 2.75527 23.1318 2.73167 23.0905ZM14.6379 27.8817C14.6386 27.8814 14.6374 27.8815 14.6367 27.8817C14.6359 27.8819 14.6372 27.8819 14.6379 27.8817Z" fill="#FF6B98"/>
<path d="M19.8648 17.0107C19.6758 15.0201 19.2483 10.0147 19.579 9.17246L20.8853 5.82995C20.6467 6.44008 19.9995 6.8851 19.012 7.01431C17.0915 7.26553 14.604 6.22952 13.4582 4.70063C12.9031 3.95892 12.7637 3.23634 12.9905 2.66211L11.6841 6.00462C11.3558 6.84682 7.65876 10.1941 6.17522 11.5148C4.92556 12.625 4.86414 14.4195 6.26027 16.281C8.33201 19.0469 12.8299 20.9203 16.3048 20.4657C18.7427 20.1475 20.0302 18.7645 19.8648 17.0107Z" fill="#A1C9EC"/>
<path d="M20.8825 2.53306C19.7462 1.01853 17.28 -0.0103047 15.3736 0.238529C13.4672 0.487363 12.8436 1.92055 13.9798 3.43748C15.1161 4.95441 17.58 5.98085 19.4864 5.73201C21.3928 5.48318 22.0164 4.04999 20.8825 2.53306Z" fill="#89B1CE"/>
<path d="M21.8794 5.31333C21.8865 5.28941 21.8936 5.26787 21.8983 5.24634C21.9054 5.2272 21.9101 5.20806 21.9148 5.18892C21.9196 5.17456 21.9219 5.1626 21.9267 5.14824C21.9361 5.10757 21.9479 5.06689 21.955 5.02383V5.02143C21.9621 4.98554 21.9668 4.95205 21.9739 4.91616C21.9763 4.89462 21.9786 4.8707 21.9833 4.84916C21.9857 4.8372 21.9857 4.82524 21.9881 4.81088C21.9904 4.78456 21.9928 4.75824 21.9952 4.73432C21.9952 4.72475 21.9975 4.71278 21.9975 4.70321C21.9975 4.67929 21.9999 4.65536 21.9999 4.63143C21.9999 4.61947 21.9999 4.60511 21.9999 4.59315C21.9999 4.56205 21.9999 4.53334 21.9975 4.50462C21.9975 4.50223 21.9975 4.49984 21.9975 4.49745C21.9952 4.45916 21.9952 4.42327 21.9928 4.38738C21.9904 4.32996 21.981 4.25101 21.9715 4.19358C21.9526 4.08831 21.9219 3.94714 21.8936 3.84186C21.8605 3.71266 21.7896 3.54757 21.74 3.42315C21.6999 3.32266 21.6337 3.19585 21.577 3.10493C21.4943 2.96616 21.3715 2.78432 21.2794 2.65273C21.2109 2.56181 21.1187 2.44217 21.0408 2.35843C20.8116 2.1096 20.7266 2.01629 20.5683 1.87991C20.3132 1.65978 20.2589 1.61193 20.0392 1.45162C20.0037 1.4277 19.9707 1.40138 19.9352 1.37745C19.8809 1.33917 19.8289 1.30567 19.7817 1.27218C19.7344 1.24107 19.6872 1.20997 19.6399 1.18126C19.5667 1.1358 19.51 1.1023 19.4769 1.08316C19.4013 1.0377 19.3281 0.997025 19.2502 0.95635C19.2218 0.939601 19.1935 0.925246 19.1675 0.91089C19.1391 0.896534 19.1108 0.879786 19.0848 0.86543C19.0163 0.82954 18.9407 0.791258 18.8462 0.748191C18.7281 0.69316 18.6123 0.640523 18.4942 0.590277C18.4493 0.571136 18.4044 0.554388 18.3596 0.537639C18.3005 0.513713 18.2414 0.489787 18.1848 0.468253C18.1729 0.463468 18.1611 0.458682 18.1517 0.453897C18.1115 0.439541 18.0714 0.427578 18.0312 0.413222C17.9745 0.394081 17.9154 0.372548 17.8588 0.355799C17.8091 0.339051 17.7619 0.324695 17.7123 0.310339C17.6509 0.291198 17.5894 0.27445 17.528 0.257701C17.4831 0.245738 17.4406 0.233775 17.3957 0.221812C17.3249 0.202671 17.254 0.185922 17.1831 0.171567C17.1501 0.164389 17.1146 0.154818 17.0815 0.14764C16.9752 0.126107 16.8689 0.104573 16.7674 0.0878245C16.1484 -0.0126661 15.7138 -0.00070295 15.6665 0.00168968C15.6429 0.00168968 15.6146 0.00408226 15.5886 0.00408226C15.513 0.00647489 15.4397 0.0112602 15.3642 0.0160455C15.3547 0.0160455 15.3453 0.018438 15.3358 0.018438C15.2862 0.0256159 15.246 0.0280086 15.2059 0.0304012C15.1445 0.0351865 15.0878 0.0423644 15.0334 0.0495423C14.724 0.0926097 14.5681 0.133284 14.3862 0.18353C14.2751 0.212241 14.131 0.267272 14.0224 0.310339C13.9562 0.336658 13.8735 0.377333 13.8074 0.406045C13.7011 0.453897 13.5712 0.537639 13.4719 0.599848C13.4696 0.599848 13.3231 0.69316 13.153 0.851074C13.1294 0.872608 13.1058 0.896534 13.0798 0.922853C12.5601 1.43488 12.3239 2.12395 12.4443 2.89917C12.4467 2.92309 12.4514 2.94463 12.4561 2.96616C12.4656 3.01401 12.475 3.06187 12.4869 3.10972C12.5034 3.1815 12.5223 3.24849 12.5365 3.30113C12.5719 3.42794 12.6404 3.58825 12.69 3.70788C12.7302 3.80358 12.794 3.92561 12.8459 4.01413C12.8814 4.07395 12.9239 4.14094 12.9688 4.21033C12.9735 4.21751 12.9782 4.22469 12.9829 4.23426C13.0373 4.31561 13.0916 4.39696 13.1412 4.46395C13.179 4.51419 13.2263 4.57401 13.2782 4.63861C13.3798 4.76303 13.4908 4.88505 13.609 5.00468C13.6397 5.03579 13.6704 5.0645 13.6987 5.0956C13.7294 5.12432 13.7578 5.15303 13.7885 5.18174C13.8097 5.20088 13.831 5.22002 13.8499 5.23677C13.8594 5.24395 13.8664 5.25113 13.8735 5.2583C13.9279 5.30616 13.9798 5.35162 14.0365 5.39708C14.1546 5.49757 14.2279 5.55499 14.3862 5.66744C14.698 5.89474 14.972 6.05026 14.9744 6.05026C15.2389 6.201 15.3405 6.25842 15.6051 6.38284C15.6878 6.42112 15.9358 6.53836 16.2689 6.65799C16.2855 6.66278 16.302 6.66756 16.3162 6.67474C16.3374 6.68192 16.3587 6.6891 16.3776 6.69628C16.4626 6.72499 16.5477 6.75609 16.6351 6.78241C16.7201 6.80873 16.8075 6.83266 16.8926 6.85658C16.9162 6.86376 16.9422 6.87094 16.9658 6.87812C17.1926 6.93793 17.4241 6.98818 17.6509 7.02407C17.7643 7.04321 17.8753 7.05756 17.984 7.06953C18.0099 7.07192 18.0336 7.07431 18.0595 7.0767C18.1422 7.08627 18.2249 7.09106 18.3076 7.09824C18.3359 7.10063 18.3666 7.10063 18.395 7.10302C18.4682 7.10541 18.5415 7.10781 18.6123 7.1102C18.6454 7.1102 18.6785 7.1102 18.7115 7.1102C18.7257 7.1102 18.7375 7.1102 18.7517 7.1102C18.8273 7.1102 18.8982 7.10781 18.9667 7.10302C18.995 7.10063 19.0234 7.09824 19.0517 7.09824C19.1179 7.09345 19.1816 7.08867 19.2407 7.08149C19.262 7.0791 19.2809 7.0767 19.3021 7.07431C19.5809 7.04321 19.7604 7.00014 19.7888 6.99296C19.8596 6.97382 19.9447 6.95229 20.0274 6.92836C20.0533 6.92118 20.0793 6.914 20.1053 6.90443C20.1715 6.88529 20.2329 6.86376 20.2896 6.84462C20.4077 6.80155 20.5612 6.73456 20.6723 6.67474C20.8164 6.59339 20.8943 6.55032 21.0101 6.46658C21.1495 6.36848 21.2699 6.26321 21.3715 6.15315C21.3999 6.12444 21.4258 6.09572 21.4447 6.0718C21.5274 5.9737 21.6054 5.88039 21.6904 5.72965C21.7211 5.67223 21.8156 5.50953 21.8794 5.31333ZM15.3736 0.23856C17.28 -0.0102735 19.7439 1.01617 20.8801 2.53309C22.0164 4.05002 21.3904 5.48082 19.4864 5.73204C17.5824 5.98327 15.1161 4.95444 13.9798 3.43751C12.8436 1.92058 13.4696 0.489787 15.3736 0.23856Z" fill="#A7BEEA"/>
</svg>
