<svg width="22" height="23" viewBox="0 0 22 23" fill="none" xmlns="http://www.w3.org/2000/svg">
<path fill-rule="evenodd" clip-rule="evenodd" d="M11.0303 10.662C10.7374 10.9549 10.2626 10.9549 9.96967 10.662L11.0303 10.662ZM11.031 10.6614L16.5303 5.16204C16.8232 4.86915 16.8232 4.39428 16.5303 4.10138C16.2374 3.80849 15.7626 3.80849 15.4697 4.10138L10.5 9.07105L5.53033 4.10138C5.23744 3.80849 4.76256 3.80849 4.46967 4.10138C4.17678 4.39428 4.17678 4.86915 4.46967 5.16204L9.96967 10.662" fill="#8D8FA2"/>
<path fill-rule="evenodd" clip-rule="evenodd" d="M11.0303 18.8808C10.7374 19.1737 10.2626 19.1737 9.96967 18.8808L11.0303 18.8808ZM11.031 18.8801L16.5303 13.3808C16.8232 13.0879 16.8232 12.613 16.5303 12.3201C16.2374 12.0272 15.7626 12.0272 15.4697 12.3201L10.5 17.2898L5.53033 12.3201C5.23744 12.0272 4.76256 12.0272 4.46967 12.3201C4.17678 12.613 4.17678 13.0879 4.46967 13.3808L9.96967 18.8808" fill="#8D8FA2"/>
</svg>
