<svg width="30" height="30" viewBox="0 0 30 30" fill="none" xmlns="http://www.w3.org/2000/svg">
<circle cx="15" cy="15" r="15" fill="white"/>
<path fill-rule="evenodd" clip-rule="evenodd" d="M13.9167 14.7449L9.79289 10.6212C9.40237 10.2306 9.40237 9.59748 9.79289 9.20696C10.1834 8.81643 10.8166 8.81643 11.2071 9.20695L14.625 12.6248L18.0429 9.20696C18.4334 8.81643 19.0666 8.81643 19.4571 9.20696C19.8476 9.59748 19.8476 10.2306 19.4571 10.6212L15.3325 14.7458C15.3323 14.7459 15.3322 14.746 15.3321 14.7462C15.2345 14.8438 15.1217 14.917 15.0013 14.9658C14.7004 15.0879 14.352 15.0574 14.0748 14.8743C14.0262 14.8423 13.9799 14.8056 13.9364 14.7642C13.9302 14.7583 13.924 14.7523 13.9179 14.7462" fill="#FF6B98"/>
<path fill-rule="evenodd" clip-rule="evenodd" d="M14.625 21.2031C14.8809 21.2031 15.1368 21.1055 15.3321 20.9102C15.3324 20.91 15.3326 20.9097 15.3329 20.9095L19.4571 16.7852C19.8476 16.3947 19.8476 15.7615 19.4571 15.371C19.0666 14.9805 18.4334 14.9805 18.0429 15.371L14.625 18.7889L11.2071 15.371C10.8166 14.9805 10.1834 14.9805 9.79289 15.371C9.40237 15.7615 9.40237 16.3947 9.79289 16.7852L13.9174 20.9098C13.9176 20.9099 13.9177 20.9101 13.9179 20.9102C14.0813 21.0736 14.2871 21.1686 14.4999 21.1953C14.5414 21.2005 14.5832 21.2031 14.625 21.2031Z" fill="#FF6B98"/>
</svg>
