<svg width="60" height="60" viewBox="0 0 60 60" fill="none" xmlns="http://www.w3.org/2000/svg">
<circle cx="30" cy="30" r="30" fill="#FF6B98" fill-opacity="0.3"/>
<path d="M15 30C15 28.0302 15.388 26.0796 16.1418 24.2597C16.8956 22.4399 18.0005 20.7863 19.3934 19.3934C20.7863 18.0005 22.4399 16.8956 24.2597 16.1418C26.0796 15.388 28.0302 15 30 15C31.9698 15 33.9204 15.388 35.7403 16.1418C37.5601 16.8956 39.2137 18.0005 40.6066 19.3934C41.9995 20.7863 43.1044 22.4399 43.8582 24.2597C44.612 26.0796 45 28.0302 45 30C45 33.9782 43.4196 37.7936 40.6066 40.6066C37.7936 43.4196 33.9782 45 30 45C26.0218 45 22.2064 43.4196 19.3934 40.6066C16.5804 37.7936 15 33.9782 15 30ZM30 22.5C29.6685 22.5 29.3505 22.6317 29.1161 22.8661C28.8817 23.1005 28.75 23.4185 28.75 23.75V28.75H23.75C23.4185 28.75 23.1005 28.8817 22.8661 29.1161C22.6317 29.3505 22.5 29.6685 22.5 30C22.5 30.3315 22.6317 30.6495 22.8661 30.8839C23.1005 31.1183 23.4185 31.25 23.75 31.25H28.75V36.25C28.75 36.5815 28.8817 36.8995 29.1161 37.1339C29.3505 37.3683 29.6685 37.5 30 37.5C30.3315 37.5 30.6495 37.3683 30.8839 37.1339C31.1183 36.8995 31.25 36.5815 31.25 36.25V31.25H36.25C36.5815 31.25 36.8995 31.1183 37.1339 30.8839C37.3683 30.6495 37.5 30.3315 37.5 30C37.5 29.6685 37.3683 29.3505 37.1339 29.1161C36.8995 28.8817 36.5815 28.75 36.25 28.75H31.25V23.75C31.25 23.4185 31.1183 23.1005 30.8839 22.8661C30.6495 22.6317 30.3315 22.5 30 22.5Z" fill="#FF6B98"/>
</svg>
