<svg width="30" height="30" viewBox="0 0 30 30" fill="none" xmlns="http://www.w3.org/2000/svg">
<path d="M0 15C-2.93527e-08 13.0302 0.387986 11.0796 1.14181 9.25975C1.89563 7.43986 3.00052 5.78628 4.3934 4.3934C5.78628 3.00052 7.43986 1.89563 9.25975 1.14181C11.0796 0.387987 13.0302 0 15 0C16.9698 0 18.9204 0.387987 20.7403 1.14181C22.5601 1.89563 24.2137 3.00052 25.6066 4.3934C26.9995 5.78628 28.1044 7.43986 28.8582 9.25975C29.612 11.0796 30 13.0302 30 15C30 18.9782 28.4196 22.7936 25.6066 25.6066C22.7936 28.4196 18.9782 30 15 30C11.0218 30 7.20644 28.4196 4.3934 25.6066C1.58035 22.7936 5.92805e-08 18.9782 0 15ZM15 7.5C14.6685 7.5 14.3505 7.6317 14.1161 7.86612C13.8817 8.10054 13.75 8.41848 13.75 8.75V13.75H8.75C8.41848 13.75 8.10054 13.8817 7.86612 14.1161C7.6317 14.3505 7.5 14.6685 7.5 15C7.5 15.3315 7.6317 15.6495 7.86612 15.8839C8.10054 16.1183 8.41848 16.25 8.75 16.25H13.75V21.25C13.75 21.5815 13.8817 21.8995 14.1161 22.1339C14.3505 22.3683 14.6685 22.5 15 22.5C15.3315 22.5 15.6495 22.3683 15.8839 22.1339C16.1183 21.8995 16.25 21.5815 16.25 21.25V16.25H21.25C21.5815 16.25 21.8995 16.1183 22.1339 15.8839C22.3683 15.6495 22.5 15.3315 22.5 15C22.5 14.6685 22.3683 14.3505 22.1339 14.1161C21.8995 13.8817 21.5815 13.75 21.25 13.75H16.25V8.75C16.25 8.41848 16.1183 8.10054 15.8839 7.86612C15.6495 7.6317 15.3315 7.5 15 7.5Z" fill="#A9D4FF"/>
</svg>
