<svg width="20" height="21" viewBox="0 0 20 21" fill="none" xmlns="http://www.w3.org/2000/svg">
<path d="M9.99992 18.8334C9.73892 18.8334 9.48729 18.7367 9.29119 18.5612C8.55056 17.8995 7.83651 17.2776 7.20653 16.7291L7.20331 16.7262C5.3563 15.1179 3.76134 13.729 2.65159 12.3608C1.41106 10.8312 0.833252 9.38092 0.833252 7.79661C0.833252 6.25732 1.3498 4.83722 2.28764 3.79774C3.23668 2.74596 4.53889 2.16669 5.95481 2.16669C7.01309 2.16669 7.98226 2.50856 8.83534 3.18273C9.26587 3.52304 9.65611 3.93952 9.99992 4.42532C10.3439 3.93952 10.734 3.52304 11.1646 3.18273C12.0177 2.50856 12.9869 2.16669 14.0452 2.16669C15.4609 2.16669 16.7633 2.74596 17.7123 3.79774C18.6502 4.83722 19.1666 6.25732 19.1666 7.79661C19.1666 9.38092 18.5889 10.8312 17.3484 12.3606C16.2386 13.729 14.6438 15.1178 12.7971 16.7259C12.166 17.2753 11.4508 17.8982 10.7085 18.5615C10.5125 18.7367 10.2608 18.8334 9.99992 18.8334ZM5.95481 3.26406C4.84241 3.26406 3.8205 3.7177 3.07708 4.54151C2.32261 5.37776 1.90705 6.53373 1.90705 7.79661C1.90705 9.12909 2.39171 10.3208 3.47838 11.6606C4.52868 12.9556 6.09091 14.316 7.89974 15.8911L7.90309 15.894C8.53546 16.4447 9.2523 17.069 9.99838 17.7356C10.7489 17.0677 11.4669 16.4424 12.1005 15.8908C13.9092 14.3157 15.4713 12.9556 16.5216 11.6606C17.6081 10.3208 18.0928 9.12909 18.0928 7.79661C18.0928 6.53373 17.6772 5.37776 16.9228 4.54151C16.1795 3.7177 15.1574 3.26406 14.0452 3.26406C13.2303 3.26406 12.4821 3.52875 11.8215 4.05071C11.2328 4.51607 10.8226 5.10435 10.5822 5.51597C10.4586 5.72764 10.2409 5.85399 9.99992 5.85399C9.75892 5.85399 9.54128 5.72764 9.41763 5.51597C9.17733 5.10435 8.76722 4.51607 8.17836 4.05071C7.51775 3.52875 6.76957 3.26406 5.95481 3.26406Z" fill="#262626" stroke="#262626" stroke-width="0.5"/>
</svg>
