<svg width="20" height="20" viewBox="0 0 20 20" fill="none" xmlns="http://www.w3.org/2000/svg">
<path d="M6.83325 3.00116H4.83325C4.30282 3.00116 3.79411 3.21187 3.41904 3.58695C3.04397 3.96202 2.83325 4.47073 2.83325 5.00116V17.0012C2.83325 17.5316 3.04397 18.0403 3.41904 18.4154C3.79411 18.7904 4.30282 19.0012 4.83325 19.0012H14.8333C15.3637 19.0012 15.8724 18.7904 16.2475 18.4154C16.6225 18.0403 16.8333 17.5316 16.8333 17.0012V5.00116C16.8333 4.47073 16.6225 3.96202 16.2475 3.58695C15.8724 3.21187 15.3637 3.00116 14.8333 3.00116H12.8333" stroke="#FF6B98" stroke-width="1.5" stroke-linecap="round" stroke-linejoin="round"/>
<path d="M10.8333 1H8.83325C7.72868 1 6.83325 1.89543 6.83325 3C6.83325 4.10457 7.72868 5 8.83325 5H10.8333C11.9378 5 12.8333 4.10457 12.8333 3C12.8333 1.89543 11.9378 1 10.8333 1Z" stroke="#FF6B98" stroke-width="1.5" stroke-linecap="round" stroke-linejoin="round"/>
<path d="M6.83325 10H6.84381" stroke="#FF6B98" stroke-width="1.5" stroke-linecap="round" stroke-linejoin="round"/>
<path d="M10.8333 10H12.8333" stroke="#FF6B98" stroke-width="1.5" stroke-linecap="round" stroke-linejoin="round"/>
<path d="M6.83325 13.9995H6.84381" stroke="#FF6B98" stroke-width="1.5" stroke-linecap="round" stroke-linejoin="round"/>
<path d="M10.8333 13.9995H12.8333" stroke="#FF6B98" stroke-width="1.5" stroke-linecap="round" stroke-linejoin="round"/>
</svg>
