<svg width="20" height="20" viewBox="0 0 20 20" fill="none" xmlns="http://www.w3.org/2000/svg">
<path d="M12 13.25V15.125C12 15.6223 11.8068 16.0992 11.463 16.4508C11.1192 16.8025 10.6529 17 10.1667 17H2.83333C2.3471 17 1.88079 16.8025 1.53697 16.4508C1.19315 16.0992 1 15.6223 1 15.125V3.875C1 3.37772 1.19315 2.90081 1.53697 2.54917C1.88079 2.19754 2.3471 2 2.83333 2H9.8C10.8125 2 12 2.83953 12 3.875V5.75" stroke="#FF6B98" stroke-width="1.5" stroke-linecap="round" stroke-linejoin="round"/>
<path fill-rule="evenodd" clip-rule="evenodd" d="M15.5303 4.96967C15.2374 4.67678 14.7626 4.67678 14.4697 4.96967C14.1768 5.26256 14.1768 5.73744 14.4697 6.03033L17.1893 8.75H5C4.58579 8.75 4.25 9.08579 4.25 9.5C4.25 9.91421 4.58579 10.25 5 10.25H17.1893L14.4697 12.9697C14.1768 13.2626 14.1768 13.7374 14.4697 14.0303C14.7626 14.3232 15.2374 14.3232 15.5303 14.0303L19.5303 10.0303C19.8232 9.73744 19.8232 9.26256 19.5303 8.96967L15.5303 4.96967Z" fill="#FF6B98"/>
</svg>
