<svg width="94" height="94" viewBox="0 0 94 94" fill="none" xmlns="http://www.w3.org/2000/svg">
<path d="M34.9726 32.9716C30.7444 31.3868 19.8992 35.2737 24.9314 43.0129C38.6745 64.1539 40.7886 70.4961 48.1865 69.9669C57.6898 69.2873 93.1117 11.2985 93.1117 7.07034C93.1117 2.84215 82.5413 8.12595 48.7157 50.9371C48.7157 50.9429 37.6391 33.9723 34.9726 32.9716Z" fill="#25BC8B"/>
<path d="M89.7656 47.0011C87.692 47.0503 86.029 48.7161 85.8295 50.781C83.9236 70.4731 67.2769 85.9196 47.0932 85.9196C25.6312 85.9196 8.17184 68.4602 8.17184 47.0011C8.17184 25.542 25.6312 8.08264 47.0932 8.08264C52.6749 8.08264 57.9847 9.2655 62.7884 11.3912C64.3617 12.0881 66.201 11.7006 67.3723 10.4397C69.2666 8.39788 68.5696 5.1096 66.0246 3.98459C60.0959 1.36438 53.5309 -0.0642947 46.6276 0.00222275C21.1977 0.25094 0.45871 20.8887 0.0972028 46.3157C-0.278765 72.5438 20.9519 94 47.0961 94C71.5224 94 91.657 75.271 93.8896 51.4173C94.1152 49.014 92.192 46.9433 89.7656 47.0011Z" fill="#25BC8B"/>
</svg>
