<svg width="94" height="94" viewBox="0 0 94 94" fill="none" xmlns="http://www.w3.org/2000/svg">
<path d="M89.8498 46.9997C87.7721 47.0488 86.1059 48.7146 85.9059 50.7795C83.9963 70.4709 67.3168 85.9169 47.0934 85.9169C25.5892 85.9169 8.09546 68.4581 8.09546 46.9997C8.09546 25.5412 25.5892 8.08239 47.0934 8.08239C52.6861 8.08239 58.0063 9.26521 62.8195 11.3908C64.3959 12.0878 66.2389 11.7002 67.4125 10.4394C69.3105 8.39762 68.6121 5.10945 66.0621 3.98447C60.1217 1.36434 53.5438 -0.0642927 46.6269 0.00222268C21.1469 0.250932 0.367146 20.888 0.00492728 46.3172C-0.371781 72.5445 20.9006 94 47.0963 94C71.5707 94 91.7449 75.2716 93.982 51.4186C94.208 49.0125 92.281 46.9418 89.8498 46.9997Z" fill="#E95959"/>
<path d="M30.1795 20.0116C27.1282 18.8895 20.4083 26.0934 23.0307 30.2145C25.6532 34.3355 50.6695 49.2783 65.6915 67.732C80.7134 86.1828 75.9959 36.8515 30.1795 20.0116Z" fill="#E95959"/>
<path d="M31.721 70.9164C28.9594 74.0194 17.5104 65.6183 23.3262 57.3733C26.9281 52.2689 59.1772 22.8286 85.396 17.9904C115.365 12.4609 56.6503 42.9134 31.721 70.9164Z" fill="#E95959"/>
</svg>
