<svg width="56" height="56" viewBox="0 0 56 56" fill="none" xmlns="http://www.w3.org/2000/svg">
<g clip-path="url(#clip0_771_19453)">
<path d="M25.6918 37.9889C25.1615 37.5319 24.3428 36.9036 23.2385 36.3542C21.8106 35.6416 21.3563 35.783 18.6772 34.9779C15.6853 34.0776 14.5756 33.3977 13.8576 32.87C13.2782 32.443 12.843 32.0323 12.5656 31.7521C12.7478 31.5536 13.047 31.2761 13.4822 31.0912C14.2139 30.7811 14.902 30.9062 15.6337 31.0613C17.1867 31.3931 17.7824 31.6433 18.4433 31.8065C19.7951 32.1438 20.7824 32.0785 22.1723 32.1519C24.9928 32.2988 27.3238 32.9598 28.1098 33.2127C33.4925 34.9534 36.1254 40.1729 36.2559 40.4395C36.7401 41.4404 38.0266 44.1957 37.5751 47.7832C37.3657 49.4532 36.8434 50.7697 36.4273 51.6264C36.2233 51.9746 35.9975 52.2901 35.7528 52.573C31.7572 57.2131 22.02 54.8631 19.9746 54.2838" stroke="#FF6B98" stroke-width="1.5" stroke-miterlimit="10" stroke-linecap="round" stroke-linejoin="round"/>
<path d="M6.33624 28.0503C6.59191 27.966 6.8775 27.9034 7.19029 27.8789C9.02622 27.7484 10.5548 29.1273 12.2221 30.6315C12.505 30.8898 12.7634 31.1346 12.9973 31.3658" stroke="#FF6B98" stroke-miterlimit="10" stroke-linecap="round" stroke-linejoin="round"/>
<path d="M19.0245 38.1194C17.3436 37.6244 15.9809 37.0913 14.98 36.6561C13.484 36.006 12.8449 35.6008 12.3988 35.2798C11.5747 34.6869 11.0443 34.1293 10.5493 33.6017C9.61635 32.6089 9.24644 31.9915 8.00889 30.2888C7.77769 29.9706 7.48122 29.5653 7.12764 29.0893C6.89101 28.7711 6.62718 28.423 6.33887 28.0476" stroke="#FF6B98" stroke-miterlimit="10" stroke-linecap="round" stroke-linejoin="round"/>
<path d="M7.12843 29.0921C6.96796 29.0404 6.78845 28.9969 6.58989 28.9751C6.38318 28.9506 5.67601 28.8935 4.95251 29.2716" stroke="#FF6B98" stroke-miterlimit="10" stroke-linecap="round" stroke-linejoin="round"/>
<path d="M16.9881 39.3243C14.9944 38.7286 13.444 38.0051 12.3697 37.4312C11.2382 36.8274 10.5337 36.4521 9.70146 35.7122C8.45846 34.608 7.64249 33.3487 7.06316 32.3831C6.92172 32.1492 6.62525 31.6433 6.17375 30.966C5.9616 30.6451 5.71137 30.286 5.4285 29.9025C5.24626 29.655 5.08579 29.4429 4.95251 29.2742" stroke="#FF6B98" stroke-miterlimit="10" stroke-linecap="round" stroke-linejoin="round"/>
<path d="M53.9991 23.5C55.4991 29.5 52.4991 39 50.8155 42.7241" stroke="#FF6B98" stroke-width="1.5" stroke-miterlimit="10" stroke-linecap="round" stroke-linejoin="round"/>
<path d="M5.49823 30.9999C5.33776 30.9727 5.68318 30.9999 5.49823 30.9999ZM5.49823 30.9999C5.19632 30.9972 5.09325 30.958 4.88382 31.0069C5.02526 31.3524 5.23197 31.8311 5.51484 32.3832C5.67803 32.7014 6.77959 34.8257 8.32449 36.3978C10.4868 38.5982 13.0571 39.3461 15.1215 39.9554C15.7988 40.1567 17.0826 40.3824 19.6257 40.8312C25.1743 41.8076 25.2695 41.6798 26.8524 42.1204C29.2759 42.7977 31.6231 43.4831 33.4346 45.5638C33.9514 46.154 34.8517 47.2148 35.0257 48.7896C35.0257 48.7896 35.208 50.4297 34.3376 52.0154C32.8689 54.6864 26.2677 55.7009 20.1207 54.3246C20.118 54.3246 20.1153 54.3246 20.1125 54.3246C19.1715 54.1125 18.244 53.8486 17.3437 53.5223C8.89023 50.4678 3.24644 42.2782 1.33979 34.3796C1.01885 33.0523 -2.05736 19.3114 7.32085 9.16886C15.9946 -0.214793 31.498 -2.38799 42.6877 5.16517C44.5535 6.42448 46.2208 7.90138 47.676 9.54692" stroke="#FF6B98" stroke-width="1.5" stroke-miterlimit="10" stroke-linecap="round" stroke-linejoin="round"/>
<path d="M43.2596 33.1583C43.2352 32.1356 43.2515 30.7376 43.431 29.0839C43.6241 27.316 43.8063 25.6269 44.5217 23.5788C45.1173 21.868 45.6831 21.0629 45.9007 19.499C45.9224 19.3385 45.9415 19.1672 45.9578 18.9877C45.9823 18.6912 46.1373 16.7954 45.6123 16.6349C45.4818 16.5941 45.1608 16.6159 44.1218 18.1826C42.906 20.0185 42.5633 21.373 41.8262 22.5997C40.7954 24.3187 40.0502 25.2733 39.4735 26.0975C38.8888 26.9379 36.2586 30.724 35.5161 35.22C35.3801 36.0469 35.2387 37.3171 35.3475 38.9191" stroke="#FF6B98" stroke-width="1.5" stroke-miterlimit="10" stroke-linecap="round" stroke-linejoin="round"/>
<path d="M45.9003 19.4989C46.205 18.7074 46.4878 17.8071 46.7 16.8089C46.9448 15.6774 46.7734 15.3755 47.1025 12.506C47.2548 11.1597 47.3908 10.2567 47.6737 9.54679C47.8315 9.14969 48.0327 8.81242 48.3074 8.49147C48.7889 7.93117 49.3356 7.59662 49.7408 7.39807" stroke="#FF6B98" stroke-width="1.5" stroke-miterlimit="10" stroke-linecap="round" stroke-linejoin="round"/>
<path d="M46.5147 28.9126C47.1049 27.1528 47.891 24.5961 48.6226 21.4274C48.8701 20.3531 48.9953 19.8172 49.0959 19.2325C49.5692 16.5262 49.4685 14.78 49.5256 11.8942C49.542 11.0537 49.5719 10.1126 49.6317 9.02469C49.6399 8.89685 49.6453 8.7663 49.6562 8.63574C49.6861 8.14344 49.716 7.72186 49.7405 7.40091" stroke="#FF6B98" stroke-miterlimit="10" stroke-linecap="round" stroke-linejoin="round"/>
<path d="M49.6321 9.02456C49.8225 8.84233 50.0564 8.65194 50.3447 8.47786C50.6928 8.26571 51.0247 8.12972 51.2994 8.04268" stroke="#FF6B98" stroke-miterlimit="10" stroke-linecap="round" stroke-linejoin="round"/>
<path d="M48.9402 28.567C49.4434 26.9813 50.1261 24.664 50.7762 21.7972C51.0971 20.3829 51.2576 19.6757 51.3501 19.0447C51.5459 17.701 51.5622 16.6566 51.5187 15.196C51.4861 14.1217 51.4208 12.8215 51.3691 11.0155C51.3582 10.5613 51.3446 10.0744 51.3338 9.55222C51.3229 9.04632 51.312 8.54314 51.3011 8.04268" stroke="#FF6B98" stroke-miterlimit="10" stroke-linecap="round" stroke-linejoin="round"/>
<path d="M51.3684 11.0156C51.4636 10.8661 51.586 10.7056 51.7519 10.556C52.1055 10.2296 52.489 10.0882 52.7447 10.0256" stroke="#FF6B98" stroke-miterlimit="10" stroke-linecap="round" stroke-linejoin="round"/>
<path d="M51.0906 27.909C51.4116 26.4865 51.8549 24.4166 52.3255 21.8844C52.66 20.0838 52.8259 19.1835 52.8695 18.645C52.8776 18.5444 52.8858 18.4464 52.8939 18.3513C52.9646 17.2769 52.9266 16.4256 52.8695 15.4355C52.8042 14.353 52.7171 13.1046 52.728 11.2142C52.728 10.7437 52.7389 10.3384 52.7443 10.0229" stroke="#FF6B98" stroke-miterlimit="10" stroke-linecap="round" stroke-linejoin="round"/>
<path d="M52.867 15.4354C52.9513 15.2368 53.0792 15.0247 53.2696 14.8288C53.4735 14.6167 53.6966 14.4861 53.8815 14.4018" stroke="#FF6B98" stroke-miterlimit="10" stroke-linecap="round" stroke-linejoin="round"/>
<path d="M50.8198 48.145C50.0664 48.2048 48.5459 48.2103 47.3356 47.2393C45.4942 45.7651 45.652 43.0316 45.6574 42.0769C45.6928 36.6289 51.4481 33.6479 52.7836 28.0504C52.9794 27.2317 53.5016 24.5934 53.8443 22.7738C53.896 22.5045 53.9395 22.276 53.9749 22.0775C54.1299 21.218 54.1653 20.9433 54.1897 20.5951C54.2931 19.1264 54.0973 18.2995 53.9585 16.0638C53.9178 15.3974 53.896 14.8289 53.8851 14.4046" stroke="#FF6B98" stroke-miterlimit="10" stroke-linecap="round" stroke-linejoin="round"/>
<path d="M37.6541 46.9889C37.9071 47.454 38.2307 47.9354 38.6414 48.4005C41.2117 51.3108 45.1746 51.2673 45.9988 51.2401" stroke="#FF6B98" stroke-width="1.5" stroke-miterlimit="10" stroke-linecap="round" stroke-linejoin="round"/>
<path d="M12.5443 19.6078C12.8951 19.771 13.2868 19.9314 13.7192 20.0783C15.3729 20.6304 16.7166 20.6304 17.5053 20.6522C17.5053 20.6522 21.014 20.4509 23.9869 21.5117C29.4811 23.47 32.0813 27.9198 32.764 29.1981C34.298 32.0676 34.5809 34.8555 34.6434 36.6017" stroke="#FF6B98" stroke-width="1.5" stroke-miterlimit="10" stroke-linecap="round" stroke-linejoin="round"/>
<path d="M12.5443 19.6078C12.6286 20.2442 12.7564 20.8372 12.9169 21.3947C14.4999 26.9542 19.5942 30.3568 23.7666 32.2879" stroke="#FF6B98" stroke-width="1.5" stroke-miterlimit="10" stroke-linecap="round" stroke-linejoin="round"/>
<path d="M30.4292 25.8853C30.2579 24.6478 30.2116 23.1328 30.5244 21.4573C31.6097 15.6612 36.1764 12.3919 37.7077 11.4182" stroke="#FF6B98" stroke-width="1.5" stroke-miterlimit="10" stroke-linecap="round" stroke-linejoin="round"/>
<path d="M37.7076 11.4155C38.0394 12.052 38.344 12.721 38.6133 13.4228C40.4112 18.1309 40.044 22.8527 39.1002 26.6497" stroke="#FF6B98" stroke-width="1.5" stroke-miterlimit="10" stroke-linecap="round" stroke-linejoin="round"/>
<path d="M34.1682 32.7992C34.1818 30.6505 34.6061 27.6042 35.0712 24.8245C35.5907 21.7319 36.3577 19.0583 37.1356 16.866" stroke="#FF6B98" stroke-width="1.5" stroke-miterlimit="10" stroke-linecap="round" stroke-linejoin="round"/>
<path d="M34.8839 37.2871C34.7099 36.7214 34.5059 36.1856 34.2829 35.6797C31.1359 28.597 23.0497 25.7847 19.0541 24.7239" stroke="#FF6B98" stroke-width="1.5" stroke-miterlimit="10" stroke-linecap="round" stroke-linejoin="round"/>
<path d="M30.3366 25.6214C29.5832 25.0067 27.9539 22.7328 27.0237 21.2559C26.4009 20.2632 23.3954 15.1769 25.7753 10.7571C26.1751 10.0146 27.1597 8.48871 29.39 7.31644" stroke="#FF6B98" stroke-width="1.5" stroke-miterlimit="10" stroke-linecap="round" stroke-linejoin="round"/>
<path d="M25.1761 16.9668C24.4608 16.945 21.8306 16.7764 20.0137 15.1445C18.0064 13.3439 17.2013 10.4499 17.8623 7.61578C18.5531 7.82794 19.2929 8.14344 20.0273 8.60583C23.6121 10.8606 24.9313 15.664 25.1462 16.8961" stroke="#FF6B98" stroke-width="1.5" stroke-miterlimit="10" stroke-linecap="round" stroke-linejoin="round"/>
<path d="M30.3959 11.3039C31.7027 11.3039 32.7622 10.3723 32.7622 9.22319C32.7622 8.07404 31.7027 7.14247 30.3959 7.14247C29.089 7.14247 28.0295 8.07404 28.0295 9.22319C28.0295 10.3723 29.089 11.3039 30.3959 11.3039Z" stroke="#FF6B98" stroke-width="1.5" stroke-miterlimit="10" stroke-linecap="round" stroke-linejoin="round"/>
</g>
<defs>
<clipPath id="clip0_771_19453">
<rect width="55.2493" height="56" fill="white"/>
</clipPath>
</defs>
</svg>
