<svg width="70" height="56" viewBox="0 0 70 56" fill="none" xmlns="http://www.w3.org/2000/svg">
<g clip-path="url(#clip0_771_19484)">
<path d="M15.6501 27.1654C15.3862 27.2569 15.1278 27.2462 14.8747 27.1304C14.6216 27.0092 14.4466 26.8181 14.3497 26.5542C14.2582 26.2904 14.2689 26.0319 14.3847 25.7788C14.5059 25.5258 14.697 25.3508 14.9609 25.2539L17.6128 24.29C17.9466 24.1742 18.2562 24.2173 18.5443 24.4192C18.8324 24.6212 18.9751 24.8958 18.9751 25.2458V35.5223C18.9751 35.805 18.8782 36.0419 18.6816 36.2385C18.4797 36.4404 18.2401 36.54 17.9574 36.54C17.6747 36.54 17.4378 36.4404 17.2412 36.2385C17.0393 36.0419 16.9397 35.805 16.9397 35.5223V26.6915L15.6501 27.1654Z" fill="#FF6B98"/>
<path d="M27.4591 24.2118C28.4526 24.2118 29.3007 24.5618 30.0007 25.2618C30.7007 25.9618 31.0507 26.8099 31.0507 27.8034V32.9537C31.0507 33.9418 30.7007 34.7845 30.0007 35.4872C29.3007 36.1872 28.4526 36.5372 27.4591 36.5372C26.4711 36.5372 25.6284 36.1872 24.9257 35.4872C24.2257 34.7872 23.8757 33.9418 23.8757 32.9537V27.8034C23.8757 26.8099 24.2257 25.9618 24.9257 25.2618C25.6284 24.5618 26.4711 24.2118 27.4591 24.2118ZM29.0261 27.8034C29.0261 27.3726 28.8726 27.0011 28.5684 26.6914C28.2587 26.3872 27.8872 26.2337 27.4564 26.2337C27.0257 26.2337 26.6595 26.3872 26.3526 26.6914C26.0484 27.0011 25.8949 27.3726 25.8949 27.8034V32.9537C25.8949 33.3845 26.0457 33.7507 26.3526 34.0576C26.6568 34.3618 27.0257 34.5153 27.4564 34.5153C27.8872 34.5153 28.2587 34.3645 28.5684 34.0576C28.8726 33.7534 29.0261 33.3845 29.0261 32.9537V27.8034Z" fill="#FF6B98"/>
<path d="M37.5825 24.2118C38.576 24.2118 39.4241 24.5618 40.1241 25.2618C40.8241 25.9618 41.1741 26.8099 41.1741 27.8034V32.9537C41.1741 33.9418 40.8241 34.7845 40.1241 35.4872C39.4241 36.1872 38.576 36.5372 37.5825 36.5372C36.5945 36.5372 35.7518 36.1872 35.0491 35.4872C34.3491 34.7872 33.9991 33.9418 33.9991 32.9537V27.8034C33.9991 26.8099 34.3491 25.9618 35.0491 25.2618C35.7491 24.5618 36.5945 24.2118 37.5825 24.2118ZM39.1495 27.8034C39.1495 27.3726 38.996 27.0011 38.6918 26.6914C38.3822 26.3872 38.0106 26.2337 37.5799 26.2337C37.1491 26.2337 36.7829 26.3872 36.476 26.6914C36.1718 27.0011 36.0183 27.3726 36.0183 27.8034V32.9537C36.0183 33.3845 36.1718 33.7507 36.476 34.0576C36.7802 34.3618 37.1491 34.5153 37.5799 34.5153C38.0106 34.5153 38.3822 34.3645 38.6918 34.0576C38.996 33.7534 39.1495 33.3845 39.1495 32.9537V27.8034Z" fill="#FF6B98"/>
<path d="M48.2189 26.7427C48.2189 27.4427 47.9685 28.0458 47.4704 28.552C46.9697 29.0527 46.3666 29.3004 45.6612 29.3004C44.9558 29.3004 44.3527 29.05 43.852 28.552C43.3512 28.0458 43.1035 27.4427 43.1035 26.7427C43.1035 26.0373 43.3539 25.4343 43.852 24.9335C44.3527 24.4273 44.9558 24.1743 45.6612 24.1743C46.3666 24.1743 46.9697 24.4273 47.4704 24.9335C47.9685 25.4343 48.2189 26.0373 48.2189 26.7427ZM53.4124 24.4004C53.6412 24.562 53.7758 24.7827 53.8162 25.0627C53.862 25.3373 53.8027 25.5877 53.6358 25.8112L46.1404 36.1147C45.9385 36.3973 45.6666 36.5373 45.322 36.5373C45.1039 36.5373 44.9047 36.47 44.727 36.3381C44.4981 36.1766 44.3581 35.9585 44.3124 35.6839C44.272 35.4039 44.3366 35.1508 44.5008 34.9247L51.9854 24.6212C52.1524 24.3923 52.3731 24.2577 52.6477 24.2173C52.9358 24.1743 53.1889 24.2335 53.4124 24.4004ZM45.1362 26.7427C45.1362 26.8854 45.1874 27.0093 45.2924 27.1143C45.3947 27.2166 45.5185 27.2704 45.6639 27.2704C45.812 27.2704 45.9385 27.2193 46.0435 27.1143C46.1458 27.012 46.1997 26.8881 46.1997 26.7427C46.1997 26.5947 46.1485 26.4681 46.0435 26.3631C45.9412 26.2608 45.8147 26.207 45.6639 26.207C45.5212 26.207 45.3974 26.2581 45.2924 26.3631C45.1874 26.4681 45.1362 26.5947 45.1362 26.7427ZM52.4216 31.3439C53.127 31.3439 53.7301 31.5943 54.2308 32.0923C54.7316 32.5931 54.9793 33.1962 54.9793 33.9016C54.9793 34.607 54.7289 35.21 54.2308 35.7108C53.7301 36.2116 53.127 36.4593 52.4216 36.4593C51.7162 36.4593 51.1131 36.2089 50.6124 35.7108C50.1116 35.21 49.8639 34.607 49.8639 33.9016C49.8639 33.1962 50.1143 32.5931 50.6124 32.0923C51.1131 31.5943 51.7162 31.3439 52.4216 31.3439ZM52.4216 34.4373C52.5643 34.4373 52.6881 34.3862 52.7931 34.2812C52.8954 34.1789 52.9493 34.0523 52.9493 33.9016C52.9493 33.7589 52.8981 33.635 52.7931 33.53C52.6908 33.4277 52.567 33.3739 52.4216 33.3739C52.2708 33.3739 52.147 33.425 52.042 33.53C51.9397 33.6323 51.8858 33.7562 51.8858 33.9016C51.8858 34.0497 51.937 34.1762 52.042 34.2812C52.147 34.3835 52.2735 34.4373 52.4216 34.4373Z" fill="#FF6B98"/>
<path d="M34.5016 0.600342C49.6323 0.600342 61.9012 12.8665 61.9012 28C61.9012 43.1361 49.6323 55.3996 34.5016 55.3996C30.8104 55.3996 27.2916 54.67 24.0797 53.348" stroke="#FF6B98" stroke-width="1.5" stroke-miterlimit="10" stroke-linecap="round" stroke-linejoin="round"/>
<path d="M35.3721 11.558C35.8863 11.138 36.5809 10.6292 37.4451 10.1311C42.1351 7.44687 49.2051 6.76033 54.404 10.3653C55.3948 11.0519 56.8917 12.2957 58.2298 14.4253" stroke="#FF6B98" stroke-width="1.5" stroke-miterlimit="10" stroke-linecap="round" stroke-linejoin="round"/>
<path d="M35.3721 11.5581C35.5848 12.2716 35.8728 12.8827 36.1959 13.4131C39.3082 18.5312 49.1513 19.5112 59.3282 17.3196L35.3721 11.5581Z" stroke="#FF6B98" stroke-width="1.5" stroke-miterlimit="10" stroke-linecap="round" stroke-linejoin="round"/>
<path d="M61.5939 23.878C61.5939 23.8836 61.5939 23.8864 61.5995 23.8864" stroke="#FF6B98" stroke-width="1.5" stroke-miterlimit="10" stroke-linecap="round" stroke-linejoin="round"/>
<path d="M60.6108 19.6673V19.6619C60.5839 18.7088 60.6781 17.6642 60.9824 16.5577C62.1777 12.2365 66.1839 9.75153 67.6727 8.94922" stroke="#FF6B98" stroke-width="1.5" stroke-miterlimit="10" stroke-linecap="round" stroke-linejoin="round"/>
<path d="M67.6717 8.9519C67.9652 9.65729 68.1725 10.3331 68.3233 10.9792C69.9306 18.0196 64.9094 24.4838 61.8994 27.6338" stroke="#FF6B98" stroke-width="1.5" stroke-miterlimit="10" stroke-linecap="round" stroke-linejoin="round"/>
<path d="M43.9898 53.7628C39.6364 55.6366 34.9194 54.8478 32.3079 51.9293C30.1514 49.5197 28.9264 45.1016 31.0533 42.3851C32.1598 40.9743 34.2787 39.8893 36.446 40.3551C38.161 40.7212 40.0294 42.0836 40.3794 44.1028C40.5706 45.212 40.2394 46.1489 40.0241 46.6309" stroke="#FF6B98" stroke-width="1.5" stroke-miterlimit="10" stroke-linecap="round" stroke-linejoin="round"/>
<path d="M26.6236 42.7026C26.2305 47.7103 25.3474 51.6438 24.9436 53.2673" stroke="#FF6B98" stroke-width="1.5" stroke-miterlimit="10" stroke-linecap="round" stroke-linejoin="round"/>
<path d="M14.6457 9.12415C16.4253 10.4972 17.8818 11.9322 19.0826 13.3349C20.5203 15.0149 21.7076 16.8188 22.6849 18.698" stroke="#FF6B98" stroke-width="1.5" stroke-miterlimit="10" stroke-linecap="round" stroke-linejoin="round"/>
<path d="M0.598633 39.8757C3.60056 39.4557 14.7736 38.4676 20.8529 45.9199C21.8571 47.1503 23.7982 50.5749 24.5548 53.1461L0.598633 39.8757ZM0.598633 39.8757C0.830171 40.6026 1.14786 41.4534 1.57594 42.3634C4.20633 47.9284 8.6244 50.7095 9.54517 51.2722C14.8732 54.5003 22.3902 53.6468 24.1967 53.4988" stroke="#FF6B98" stroke-width="1.5" stroke-miterlimit="10" stroke-linecap="round" stroke-linejoin="round"/>
<path d="M4.04047 46.3507L10.2516 45.4515L9.802 39.8811C8.07085 36.2868 7.09893 32.2565 7.09893 27.9999C7.09893 20.6849 9.96893 14.0376 14.6455 9.12415" stroke="#FF6B98" stroke-width="1.5" stroke-miterlimit="10" stroke-linecap="round" stroke-linejoin="round"/>
<path d="M9.1991 50.96C9.94217 50.9197 16.506 48.9677 16.506 48.9677L16.6622 42.482" stroke="#FF6B98" stroke-width="1.5" stroke-miterlimit="10" stroke-linecap="round" stroke-linejoin="round"/>
<path d="M39.0479 16.1888L44.5159 13.9218L41.3525 8.6853" stroke="#FF6B98" stroke-width="1.5" stroke-miterlimit="10" stroke-linecap="round" stroke-linejoin="round"/>
<path d="M46.4697 18.0626L50.5728 15.2492L48.8928 8.29492" stroke="#FF6B98" stroke-width="1.5" stroke-miterlimit="10" stroke-linecap="round" stroke-linejoin="round"/>
</g>
<defs>
<clipPath id="clip0_771_19484">
<rect width="69.2354" height="56" fill="white"/>
</clipPath>
</defs>
</svg>
