<svg width="56" height="56" viewBox="0 0 56 56" fill="none" xmlns="http://www.w3.org/2000/svg">
<g clip-path="url(#clip0_771_19505)">
<path d="M43.6204 50.5349C40.8006 52.4973 37.5951 53.9411 34.1394 54.7281C33.282 54.173 32.534 53.6179 32.3047 52.8387C31.9659 51.692 32.852 50.4124 33.6442 49.7609C34.043 49.4325 34.473 49.2293 34.8769 49.1042C35.002 49.0599 35.1245 49.026 35.2418 49.0051C35.3434 49.1146 35.4529 49.2162 35.5675 49.3205C36.4979 49.6019 37.5143 49.8495 38.6063 50.0528C40.4019 50.3916 42.0854 50.5245 43.6204 50.5349Z" stroke="#FF6B98" stroke-width="1.5" stroke-miterlimit="10" stroke-linecap="round" stroke-linejoin="round"/>
<path d="M44.5046 49.899C44.2128 50.1179 43.9183 50.3316 43.6212 50.5349C42.0836 50.5245 40.4026 50.3915 38.607 50.0554C37.5125 49.8521 36.4987 49.6045 35.5683 49.323C35.4536 49.2188 35.3442 49.1172 35.2425 49.0077C33.2567 47.0479 32.3185 45.0907 32.6521 44.0613C32.897 43.3212 33.3896 42.7791 33.3896 42.7791C33.6137 42.5393 33.8431 42.3517 34.062 42.2136C34.088 42.1927 34.1167 42.1797 34.1402 42.1641C34.8725 42.2214 35.7976 42.4169 36.6967 42.972C37.7392 43.6183 37.9268 44.2437 39.0318 45.5989C39.686 46.3938 41.1584 48.1685 43.2928 49.3335C43.6186 49.5081 44.0225 49.7087 44.5046 49.899Z" stroke="#FF6B98" stroke-width="1.5" stroke-miterlimit="10" stroke-linecap="round" stroke-linejoin="round"/>
<path d="M55.4197 27.9999C55.4197 36.9467 51.1353 44.8953 44.5053 49.899C44.2135 50.1179 43.919 50.3316 43.6219 50.5349C40.8021 52.4973 37.5965 53.9411 34.1409 54.7281C32.168 55.1816 30.1118 55.4187 28.0009 55.4187C12.8568 55.4187 0.582031 43.144 0.582031 27.9999C0.582031 12.8558 12.8568 0.581055 28.0009 0.581055C32.1758 0.581055 36.1319 1.51143 39.6736 3.18195C48.9774 7.56281 55.4197 17.0282 55.4197 27.9999Z" stroke="#FF6B98" stroke-width="1.5" stroke-miterlimit="10" stroke-linecap="round" stroke-linejoin="round"/>
<path d="M39.6735 3.17944C41.2059 9.73641 40.1739 13.6899 38.6649 15.9806C34.7897 21.8574 32.5719 24.1039 32.5719 24.1039C30.9092 26.0402 29.1709 28.0782 29.6348 29.3708C29.9553 30.2647 30.2915 31.6225 33.4006 32.0577C35.9728 32.42 37.8883 31.9665 38.3288 32.9047C38.6441 33.5745 38.5894 34.5127 36.5644 38.5704C36.2491 39.201 34.9982 41.2208 33.9818 42.2372" stroke="#FF6B98" stroke-width="1.5" stroke-miterlimit="10" stroke-linecap="round" stroke-linejoin="round"/>
<path d="M38.4746 30.0173C39.5431 29.5117 40.1998 29.5977 40.6064 29.7801C41.2553 30.0746 41.2736 30.6219 42.0267 30.9633C42.0789 30.9867 43.0379 31.4037 43.9214 30.9633C44.7579 30.5463 45.2427 29.4987 45.1045 28.3572" stroke="#FF6B98" stroke-width="1.5" stroke-miterlimit="10" stroke-linecap="round" stroke-linejoin="round"/>
<path d="M14.1077 17.2754C13.4594 17.4186 12.6296 17.6484 11.7031 18.0179C6.68982 20.0349 1.76925 25.1579 1.3763 31.4721C1.30103 32.6751 1.34943 34.6208 2.19142 36.9908" stroke="#FF6B98" stroke-width="1.5" stroke-miterlimit="10" stroke-linecap="round" stroke-linejoin="round"/>
<path d="M14.1074 17.2754C14.5355 17.8845 14.8366 18.4893 15.0526 19.0716C17.1403 24.6861 11.8089 33.0182 3.78164 39.6466L14.1074 17.2754Z" stroke="#FF6B98" stroke-width="1.5" stroke-miterlimit="10" stroke-linecap="round" stroke-linejoin="round"/>
<path d="M15.4648 23.0301L10.2968 25.9163L8.14784 20.1883" stroke="#FF6B98" stroke-width="1.5" stroke-miterlimit="10" stroke-linecap="round" stroke-linejoin="round"/>
<path d="M12.3354 30.0159L7.58451 31.4922L3.16817 25.8637" stroke="#FF6B98" stroke-width="1.5" stroke-miterlimit="10" stroke-linecap="round" stroke-linejoin="round"/>
<path d="M9.89669 35.0754L9.90113 35.0724C10.6713 34.5103 11.5855 33.9961 12.6697 33.62C16.9078 32.1571 21.225 34.0507 22.7296 34.8231" stroke="#FF6B98" stroke-width="1.5" stroke-miterlimit="10" stroke-linecap="round" stroke-linejoin="round"/>
<path d="M22.7251 34.8231C22.3101 35.4646 21.8706 36.0182 21.4236 36.5085C16.5324 41.8214 8.361 41.3457 4.06004 40.6497" stroke="#FF6B98" stroke-width="1.5" stroke-miterlimit="10" stroke-linecap="round" stroke-linejoin="round"/>
</g>
<defs>
<clipPath id="clip0_771_19505">
<rect width="56" height="56" fill="white"/>
</clipPath>
</defs>
</svg>
