<svg width="78" height="70" viewBox="0 0 78 70" fill="none" xmlns="http://www.w3.org/2000/svg">
<g clip-path="url(#clip0_771_19518)">
<path d="M40.9471 55.7318H30.0197V28.0248H41.9893V42.2726" stroke="#FF6B98" stroke-width="1.49811" stroke-miterlimit="10" stroke-linecap="round" stroke-linejoin="round"/>
<path d="M39.6914 20.8723H32.3141V28.0247H39.6914V20.8723Z" stroke="#FF6B98" stroke-width="1.49811" stroke-miterlimit="10" stroke-linecap="round" stroke-linejoin="round"/>
<path d="M37.8199 17.0529V20.7638H34.0103V17.2672L37.1388 17.0863L37.8199 17.0529Z" stroke="#FF6B98" stroke-width="1.19849" stroke-miterlimit="10" stroke-linecap="round" stroke-linejoin="round"/>
<path d="M43.857 17.6256L43.3515 17.9088L42.1415 16.8331L37.8185 17.0534L37.1374 17.0868L34.0088 17.2677L32.75 17.3425V15.6138L42.3659 15.6709L43.857 17.6256Z" stroke="#FF6B98" stroke-width="0.998743" stroke-miterlimit="10" stroke-linecap="round" stroke-linejoin="round"/>
<path d="M41.1613 54.8449C41.3467 52.8665 41.9614 49.311 44.3249 45.7181C48.4703 39.4152 54.9323 37.6492 56.6185 37.2421" stroke="#FF6B98" stroke-width="1.49811" stroke-miterlimit="10" stroke-linecap="round" stroke-linejoin="round"/>
<path d="M42.7413 46.5857C42.792 46.1471 43.1023 42.9534 40.692 40.3929C38.2778 37.8266 35.0907 37.9741 34.6535 38.0036C34.5794 38.6289 34.5755 39.2091 34.6184 39.742C35.0165 44.8079 40.856 48.6211 42.2748 49.5218" stroke="#FF6B98" stroke-width="1.49811" stroke-miterlimit="10" stroke-linecap="round" stroke-linejoin="round"/>
<path d="M46.4622 43.1004C46.0543 40.4986 46.3158 36.8919 46.7686 35.7218C48.8959 30.2135 56.121 26.7877 64.8119 27.3187" stroke="#FF6B98" stroke-width="1.49811" stroke-miterlimit="10" stroke-linecap="round" stroke-linejoin="round"/>
<path d="M46.519 43.1811C48.014 43.5999 52.3214 44.5498 56.0432 43.0355C61.0669 40.9923 64.4667 35.6924 64.8141 29.4898" stroke="#FF6B98" stroke-width="1.49811" stroke-miterlimit="10" stroke-linecap="round" stroke-linejoin="round"/>
<path d="M42.8494 48.3614C43.468 47.9386 45.1094 47.3781 45.652 47.2031C48.6088 46.2533 51.5831 47.6141 53.4938 48.857" stroke="#FF6B98" stroke-width="1.49811" stroke-miterlimit="10" stroke-linecap="round" stroke-linejoin="round"/>
<path d="M42.2054 50.0997C45.0607 52.0367 49.1729 52.6464 51.5149 51.079C52.483 50.4301 53.1036 49.5825 53.4978 48.8568" stroke="#FF6B98" stroke-width="1.49811" stroke-miterlimit="10" stroke-linecap="round" stroke-linejoin="round"/>
<path d="M19.2386 28.188L23.6592 31.012" stroke="#FF6B98" stroke-width="1.49811" stroke-miterlimit="10" stroke-linecap="round" stroke-linejoin="round"/>
<path d="M20.4215 39.0534L23.6574 39.1616" stroke="#FF6B98" stroke-width="1.49811" stroke-miterlimit="10" stroke-linecap="round" stroke-linejoin="round"/>
<path d="M26.459 21.7768L28.6156 24.3845" stroke="#FF6B98" stroke-width="1.49811" stroke-miterlimit="10" stroke-linecap="round" stroke-linejoin="round"/>
<path d="M16.3081 21.6945C16.0243 21.5307 15.6626 21.6286 15.507 21.917C12.6813 27.1527 11.617 33.1792 12.4837 39.0905C13.3791 45.1981 16.2841 50.8289 20.7326 55.08C25.1811 59.331 30.9155 61.956 37.0162 62.5339C43.1169 63.1119 49.2304 61.6093 54.3763 58.2672C59.5223 54.9251 63.4026 49.9371 65.3949 44.103C67.3872 38.2689 67.3761 31.9269 65.3635 26.0938C63.3508 20.2608 59.4531 15.2747 54.2955 11.9352C49.3039 8.70314 43.4119 7.19462 37.5092 7.62762C37.1836 7.6515 36.9458 7.94212 36.977 8.26936C37.0083 8.59768 37.2985 8.83831 37.6252 8.8147C43.263 8.40732 48.8891 9.8509 53.6568 12.9379C58.5912 16.1329 62.3201 20.9032 64.2457 26.4838C66.1713 32.0644 66.1819 38.132 64.2758 43.7136C62.3697 49.2952 58.6573 54.0673 53.7341 57.2648C48.8108 60.4623 42.9619 61.8998 37.1252 61.3469C31.2885 60.794 25.8023 58.2826 21.5463 54.2155C17.2903 50.1485 14.5111 44.7613 13.6544 38.918C12.8265 33.271 13.8404 27.5142 16.5347 22.5103C16.69 22.2218 16.5918 21.8583 16.3081 21.6945Z" fill="#FF6B98"/>
<path d="M12.8631 38.3199L12.861 38.3149C12.5064 37.4311 12.0045 36.5117 11.2855 35.6191C8.47111 32.1362 3.81247 31.4538 2.12936 31.3113" stroke="#FF6B98" stroke-width="1.49811" stroke-miterlimit="10" stroke-linecap="round" stroke-linejoin="round"/>
<path d="M2.13188 31.3138C2.14371 32.0767 2.22268 32.7783 2.34167 33.4302C3.67055 40.5191 10.8423 44.4429 14.853 46.1309" stroke="#FF6B98" stroke-width="1.49811" stroke-miterlimit="10" stroke-linecap="round" stroke-linejoin="round"/>
</g>
<defs>
<clipPath id="clip0_771_19518">
<rect width="77.5" height="70" fill="white"/>
</clipPath>
</defs>
</svg>
