<svg width="200" height="168" viewBox="0 0 200 168" fill="none" xmlns="http://www.w3.org/2000/svg">
<path d="M35.2607 21.3992C32.3099 23.8774 29.4706 26.5911 26.7802 29.5278C8.05846 49.9361 -1.88513 79.5015 0.297006 108.224C1.1897 119.909 4.09094 131.669 10.3646 141.21C19.2171 154.654 33.9465 162.399 48.8991 165.435C94.7983 174.728 152.104 158.582 183.423 119.736C197.309 102.5 204.649 77.3331 196.776 56.0821C192.511 44.5459 184.253 35.2153 175.041 27.8426C135.862 -3.49478 75.0847 -12.0571 35.2607 21.3992Z" fill="#98ACF8"/>
<path d="M153.159 20.4949C153.159 20.4949 182.394 34.6581 188.742 65.9583" stroke="white" stroke-miterlimit="10" stroke-linecap="round" stroke-linejoin="round"/>
<path d="M188.8 81.6699C188.25 86.8399 186.95 92.4299 184.68 98.4299" stroke="white" stroke-miterlimit="10" stroke-linecap="round" stroke-linejoin="round"/>
</svg>
