<svg width="187" height="217" viewBox="0 0 187 217" fill="none" xmlns="http://www.w3.org/2000/svg">
<path d="M65.5282 21.1861C65.5041 21.6083 65.5026 22.0331 65.5011 22.4578C65.547 26.0577 66.9529 29.304 70.3409 30.8422C76.6682 33.7192 85.1987 31.4674 91.5009 29.5295C96.5666 27.9703 99.9632 25.2142 99.8049 19.5346C99.554 10.5714 91.3146 5.79273 83.9413 2.92528C80.5848 1.62028 75.1896 -0.452097 72.2062 2.61431C70.195 4.68672 69.007 8.64266 67.9432 11.2802C66.6812 14.4584 65.6914 17.7704 65.5282 21.1861Z" fill="#B088F9"/>
<path d="M21.9166 96.6987C9.81865 112.495 2.60481 131.546 11.2164 149.241C25.4324 178.449 63.3539 197.222 91.1413 205.562C103.03 209.128 115.603 211.29 128.334 209.162C141.076 207.036 154.07 200.184 162.746 188.507C176.864 169.526 176.59 143.08 172.528 120.737C169.165 102.204 163.701 84.1949 154.299 69.2602C135.055 38.6986 105.176 30.4818 72.9527 51.7947C58.5935 61.3088 36.5003 77.6658 21.9166 96.6987Z" fill="#B088F9"/>
<path d="M51.2177 76.1507C44.3614 82.0234 39.8222 86.3747 39.8222 86.3747" stroke="white" stroke-miterlimit="10" stroke-linecap="round" stroke-linejoin="round"/>
<path d="M90.2762 48.7331C80.6027 53.3037 71.7486 59.6884 63.3242 66.2359" stroke="white" stroke-miterlimit="10" stroke-linecap="round" stroke-linejoin="round"/>
</svg>
