<svg width="36" height="39" viewBox="0 0 36 39" fill="none" xmlns="http://www.w3.org/2000/svg">
<path d="M24.7396 20.0227C21.7612 17.3244 17.7754 15.94 13.8439 16.026C13.4003 12.3979 14.4848 8.62673 17.0977 5.73056C21.7147 0.621537 29.4554 0.347308 34.8204 4.40973C35.1257 4.63591 35.5412 4.11918 35.2392 3.87913C29.7002 -0.561463 21.3854 -0.152314 16.5567 5.17018C13.7713 8.23786 12.6065 12.2244 13.0526 16.0582C10.2202 16.2656 7.45267 17.2501 5.15867 19.0793C-1.10876 24.0753 -1.78331 34.2425 5.26927 38.9101C5.47838 39.0476 5.64908 38.7292 5.46407 38.5828C0.562744 34.6962 -0.549093 27.5845 3.06818 22.4289C5.46035 19.0116 9.22472 17.1282 13.1798 16.85C13.6313 19.4253 14.8179 21.8966 16.7442 23.9353C18.6286 25.9347 22.1033 28.3625 24.9854 26.9877C28.0512 25.5173 26.6815 21.7795 24.7396 20.0227ZM16.7698 22.7768C15.2927 21.0057 14.3601 18.9462 13.9642 16.8163C15.8756 16.786 17.8159 17.1288 19.6448 17.8481C21.0379 18.398 22.3502 19.134 23.537 20.0598C25.1007 21.2802 27.2541 23.9367 25.2791 25.8415C22.7351 28.2926 18.3785 24.7036 16.7698 22.7768Z" fill="#ADD6FF"/>
</svg>
