<svg width="309" height="122" viewBox="0 0 309 122" fill="none" xmlns="http://www.w3.org/2000/svg">
<path d="M305.327 7.31228C309.268 28.5678 302.205 49.4491 289.135 66.3515C276.139 83.1611 254.65 100.788 232.161 100.284C227.845 100.184 223.407 99.0003 219.109 96.9997C220.242 95.9641 221.352 94.91 222.416 93.819C237.442 78.466 244.433 43.8834 218.439 34.5397C208.403 30.9339 198.162 36.3366 193.389 45.4629C187.55 56.5875 191.131 70.755 197.27 80.9408C201.527 87.9871 207.6 94.0465 214.847 97.9268C182.08 125.84 126.309 127.43 95.8393 96.2371C91.0427 91.3404 86.6413 85.0699 83.2926 78.1737C94.3163 76.6685 104.888 72.304 113.337 64.9325C120.88 58.3599 128.572 47.8685 126.843 37.3083C125.283 27.8678 116.353 20.7408 107.053 19.688C95.4543 18.369 84.545 26.2941 79.3922 36.1807C73.2287 47.996 74.4863 62.4274 79.1056 74.5365C79.344 75.1421 79.58 75.727 79.837 76.3094C66.1259 77.4871 51.9273 74.1856 40.4103 66.8673C17.9445 52.567 5.80706 26.9063 2.34898 1.31441C2.16486 -0.119987 -0.0681099 0.00709314 0.113651 1.42067C3.78423 28.6968 17.1393 56.1174 41.8194 70.3139C53.3654 76.9539 67.3189 79.7772 80.7599 78.4614C103.822 129.562 176.912 132.797 216.912 98.9366C220.807 100.751 224.971 101.944 229.364 102.352C245.69 103.851 261.469 95.1201 273.724 85.2282C296.872 66.5272 313.174 37.3833 307.562 7.20603C307.297 5.80196 305.061 5.90822 305.327 7.31228ZM86.6871 29.8473C96.5598 19.8886 114.174 18.5417 122.217 31.4853C130.08 44.154 118.295 58.9278 108.115 66.1796C100.467 71.6462 91.5237 74.8555 82.2836 76.0104C75.4155 60.529 74.2488 42.4174 86.6871 29.8473ZM198.055 42.4864C209.83 28.5573 227.896 38.8438 232.471 53.5522C236.546 66.6512 231.442 80.3287 222.651 90.2911C220.884 92.2845 219.001 94.1857 217.044 95.9899C198.066 85.8914 183.069 60.2602 198.055 42.4864Z" fill="url(#paint0_linear_771_19574)"/>
<defs>
<linearGradient id="paint0_linear_771_19574" x1="0.789989" y1="7.37655" x2="307.566" y2="5.74398" gradientUnits="userSpaceOnUse">
<stop stop-color="#D3175C"/>
<stop offset="1" stop-color="#98ACF8"/>
</linearGradient>
</defs>
</svg>
