<svg width="37" height="29" viewBox="0 0 37 29" fill="none" xmlns="http://www.w3.org/2000/svg">
<path d="M18.3244 18.8497C15.8281 17.1632 14.5734 14.5993 14.6954 11.8702C11.3014 12.0639 7.7573 13.3334 5.01674 15.5386C0.182129 19.4341 -0.156408 24.822 3.5925 27.9699C3.80115 28.1497 3.31271 28.5081 3.09103 28.3325C-1.01029 25.1164 -0.539306 19.3133 4.49751 15.242C7.40055 12.8939 11.1472 11.5392 14.7338 11.3189C14.958 9.33266 15.9094 7.2841 17.6471 5.44639C22.3933 0.425766 31.9246 -1.44233 36.2226 2.78851C36.3492 2.91409 36.0491 3.07597 35.9139 2.96828C32.3248 0.116607 25.6746 0.328736 20.8069 3.53969C17.5806 5.66422 15.7766 8.52567 15.4743 11.2976C17.8819 11.2545 20.1844 11.7339 22.0738 12.7842C23.9269 13.8109 26.1645 15.8777 24.8462 18.0592C23.4365 20.381 19.9495 19.9497 18.3244 18.8497ZM20.9883 12.9617C19.3449 12.185 17.4255 11.8243 15.4344 11.8444C15.3859 13.1697 15.6865 14.4634 16.341 15.6283C16.8415 16.5153 17.517 17.3208 18.3718 18.0134C19.4985 18.9259 21.9643 20.048 23.7694 18.4203C26.0923 16.324 22.7763 13.8078 20.9883 12.9617Z" fill="#B088F9"/>
</svg>
