<svg width="37" height="28" viewBox="0 0 37 28" fill="none" xmlns="http://www.w3.org/2000/svg">
<path d="M13.3284 16.2186C15.1982 13.2454 18.2256 11.1402 21.5542 10.2852C21.0716 7.1275 19.2694 4.20989 16.3875 2.38915C11.2972 -0.820925 4.71867 0.774342 1.16238 5.45844C0.958852 5.72078 0.487339 5.38396 0.684824 5.11072C4.29835 0.0673521 11.3917 -1.54978 16.7106 1.78998C19.7781 3.71435 21.6987 6.7942 22.2277 10.1255C24.66 9.63192 27.2212 9.8075 29.5831 10.8056C36.0356 13.5313 39.0017 21.9278 34.168 27.5192C34.0245 27.6842 33.8057 27.4565 33.9269 27.2897C37.1345 22.863 36.3925 16.6162 32.1323 13.1311C29.3132 10.8199 25.7012 10.123 22.3074 10.8219C22.535 13.0955 22.1195 15.4549 20.9794 17.6249C19.8654 19.752 17.5142 22.6146 14.7646 22.1375C11.8378 21.6234 12.1087 18.155 13.3284 16.2186ZM20.6846 16.6561C21.5098 14.8173 21.8087 12.8643 21.6394 10.9785C20.0238 11.404 18.472 12.1501 17.1026 13.1868C16.0601 13.9782 15.1294 14.9071 14.3492 15.9662C13.3212 17.3619 12.1358 20.1053 14.2471 21.2423C16.966 22.7048 19.7854 18.6569 20.6846 16.6561Z" fill="url(#paint0_linear_841_20296)"/>
<defs>
<linearGradient id="paint0_linear_841_20296" x1="1.60813" y1="4.64086" x2="33.7417" y2="23.1752" gradientUnits="userSpaceOnUse">
<stop stop-color="#DA9FF9"/>
<stop offset="1" stop-color="#B088F9"/>
</linearGradient>
</defs>
</svg>
