<svg width="33" height="29" viewBox="0 0 33 29" fill="none" xmlns="http://www.w3.org/2000/svg">
<path d="M16.7598 20.4174C18.8595 17.8038 19.8152 14.4163 19.5492 11.1467C22.5485 10.5979 25.7424 11.3146 28.2833 13.3472C32.766 16.9392 33.3771 23.3716 30.2594 28.04C30.0862 28.3054 30.537 28.6258 30.722 28.3625C34.1459 23.5304 33.3941 16.6268 28.7232 12.869C26.031 10.7012 22.6537 9.92832 19.4833 10.4893C19.1706 8.14101 18.2139 5.88507 16.5773 4.06524C12.1071 -0.906774 3.6073 -0.965811 0.0691816 5.1378C-0.0349488 5.31873 0.238641 5.44514 0.351405 5.28383C3.34552 1.01023 9.21263 -0.26723 13.6847 2.49006C16.6485 4.31311 18.403 7.35467 18.8302 10.6344C16.708 11.1377 14.7088 12.248 13.1064 13.9529C11.5346 15.6209 9.6847 18.6344 10.972 20.9664C12.3481 23.4467 15.3929 22.1213 16.7598 20.4174ZM14.0723 13.9169C15.4741 12.5994 17.143 11.7209 18.8971 11.2859C19.0168 12.8761 18.8273 14.5087 18.3188 16.0673C17.9296 17.2545 17.3817 18.3837 16.6694 19.4177C15.7305 20.7802 13.6248 22.7047 11.941 21.1543C9.77417 19.157 12.5474 15.3517 14.0723 13.9169Z" fill="#98ACF8"/>
</svg>
