<svg width="70" height="88" viewBox="0 0 70 88" fill="none" xmlns="http://www.w3.org/2000/svg">
<g clip-path="url(#clip0_771_19590)">
<path d="M20.6423 44.3969C26.0877 39.4637 33.3746 36.9328 40.5624 37.09C41.3733 30.4569 39.3906 23.5622 34.6136 18.2673C26.1727 8.92679 12.0207 8.42543 2.2121 15.8525C1.65401 16.2661 0.894419 15.3213 1.44651 14.8825C11.5732 6.76397 26.7746 7.512 35.6027 17.2428C40.695 22.8513 42.8246 30.1397 42.0091 37.1487C47.1873 37.5279 52.2471 39.3278 56.4411 42.6721C67.8995 51.8061 69.1328 70.3942 56.2389 78.9277C55.8566 79.179 55.5445 78.5969 55.8828 78.3292C64.8436 71.2236 66.8763 58.2217 60.263 48.7959C55.8896 42.5484 49.0074 39.105 41.7765 38.5965C40.9511 43.3047 38.7817 47.8228 35.2599 51.55C31.8148 55.2055 25.4622 59.6441 20.193 57.1306C14.5878 54.4423 17.092 47.6087 20.6423 44.3969ZM35.2131 49.4321C37.9135 46.1941 39.6186 42.4289 40.3425 38.5347C36.8478 38.4794 33.3007 39.1061 29.9568 40.4211C27.41 41.4266 25.0107 42.7721 22.8411 44.4648C19.9822 46.6958 16.0452 51.5526 19.6561 55.0351C24.3071 59.5162 32.2721 52.9547 35.2131 49.4321Z" fill="url(#paint0_linear_771_19590)"/>
</g>
<defs>
<linearGradient id="paint0_linear_771_19590" x1="3.57167" y1="14.4574" x2="57.8331" y2="69.9366" gradientUnits="userSpaceOnUse">
<stop stop-color="#DA9FF9"/>
<stop offset="1" stop-color="#B088F9"/>
</linearGradient>
<clipPath id="clip0_771_19590">
<rect width="52.4689" height="77.42" fill="white" transform="matrix(-0.97303 0.230681 0.230681 0.97303 51.6465 0.490723)"/>
</clipPath>
</defs>
</svg>
