<svg width="53" height="78" viewBox="0 0 53 78" fill="none" xmlns="http://www.w3.org/2000/svg">
<g clip-path="url(#clip0_771_19580)">
<path d="M40.2963 35.5699C33.8598 32.026 26.1856 31.2442 19.2279 33.0553C16.9087 26.7882 17.2475 19.6221 20.6742 13.368C26.7328 2.33223 40.3875 -1.4202 51.6448 3.54395C52.2832 3.81757 52.8044 2.72311 52.166 2.42343C40.4396 -3.14007 25.8207 1.09445 19.4755 12.5993C15.8143 19.2312 15.4234 26.8142 17.8338 33.4462C12.8827 35.0097 8.37454 37.9282 5.0651 42.1497C-3.97722 53.6806 -0.889284 72.0519 13.6253 77.3809C14.0553 77.5372 14.2247 76.8988 13.8338 76.7164C3.47553 71.8695 -1.50166 59.6871 2.75892 48.9901C5.57324 41.9022 11.4755 36.9641 18.3941 34.8012C20.2833 39.1921 23.4364 43.0878 27.723 45.9021C31.9185 48.6644 39.1236 51.5178 43.6709 47.8565C48.5047 43.9478 44.4917 37.8761 40.2963 35.5699ZM27.28 43.8305C23.9054 41.3028 21.3778 38.0325 19.7752 34.4103C23.1628 33.5504 26.7589 33.3419 30.3158 33.8501C33.0259 34.2409 35.6709 34.9966 38.1725 36.1432C41.4689 37.6546 46.42 41.4722 43.71 45.6937C40.2181 51.1269 30.9543 46.5797 27.28 43.8305Z" fill="url(#paint0_linear_771_19580)"/>
</g>
<defs>
<linearGradient id="paint0_linear_771_19580" x1="50.0001" y1="2.50006" x2="10.0001" y2="69.0001" gradientUnits="userSpaceOnUse">
<stop stop-color="#BEDCFA"/>
<stop offset="1" stop-color="#98ACF8"/>
</linearGradient>
<clipPath id="clip0_771_19580">
<rect width="52.4689" height="77.42" fill="white"/>
</clipPath>
</defs>
</svg>
